<?xml version="1.0" encoding="utf-8" standalone="no"?>
<!DOCTYPE svg PUBLIC "-//W3C//DTD SVG 1.1//EN"
  "http://www.w3.org/Graphics/SVG/1.1/DTD/svg11.dtd">
<svg xmlns:xlink="http://www.w3.org/1999/xlink" width="872.584399pt" height="418.66466pt" viewBox="0 0 872.584399 418.66466" xmlns="http://www.w3.org/2000/svg" version="1.1">
 <metadata>
  <rdf:RDF xmlns:dc="http://purl.org/dc/elements/1.1/" xmlns:cc="http://creativecommons.org/ns#" xmlns:rdf="http://www.w3.org/1999/02/22-rdf-syntax-ns#">
   <cc:Work>
    <dc:type rdf:resource="http://purl.org/dc/dcmitype/StillImage"/>
    <dc:date>2026-08-08T18:24:20.266978</dc:date>
    <dc:format>image/svg+xml</dc:format>
    <dc:creator>
     <cc:Agent>
      <dc:title>Matplotlib v3.10.9, https://matplotlib.org/</dc:title>
     </cc:Agent>
    </dc:creator>
   </cc:Work>
  </rdf:RDF>
 </metadata>
 <defs>
  <style type="text/css">*{stroke-linejoin: round; stroke-linecap: butt}</style>
 </defs>
 <g id="figure_1">
  <g id="patch_1">
   <path d="M 0 418.66466 
L 872.584399 418.66466 
L 872.584399 0 
L 0 0 
z
" style="fill: #ffffff"/>
  </g>
  <g id="axes_1">
   <g id="patch_2">
    <path d="M 48.0875 338.263588 
L 865.384399 338.263588 
L 865.384399 7.2 
L 48.0875 7.2 
z
" style="fill: #ffffff"/>
   </g>
   <g id="matplotlib.axis_1">
    <g id="xtick_1">
     <g id="line2d_1">
      <defs>
       <path id="mbb19c0b1c1" d="M 0 0 
L 0 3.5 
" style="stroke: #000000; stroke-width: 0.8"/>
      </defs>
      <g>
       <use xlink:href="#mbb19c0b1c1" x="131.999419" y="338.263588" style="stroke: #000000; stroke-width: 0.8"/>
      </g>
     </g>
     <g id="text_1">
      <text style="font-size: 7px; font-family: 'DejaVu Sans'" transform="translate(117.558046 357.486658) rotate(-25)">A1:</text>
      <text style="font-size: 7px; font-family: 'DejaVu Sans'" transform="translate(86.264355 380.72794) rotate(-25)">Precomposteo</text>
     </g>
    </g>
    <g id="xtick_2">
     <g id="line2d_2">
      <g>
       <use xlink:href="#mbb19c0b1c1" x="261.894031" y="338.263588" style="stroke: #000000; stroke-width: 0.8"/>
      </g>
     </g>
     <g id="text_2">
      <text style="font-size: 7px; font-family: 'DejaVu Sans'" transform="translate(247.452658 357.486658) rotate(-25)">A2:</text>
      <text style="font-size: 7px; font-family: 'DejaVu Sans'" transform="translate(202.590406 387.055063) rotate(-25)">Lombricompostaje</text>
     </g>
    </g>
    <g id="xtick_3">
     <g id="line2d_3">
      <g>
       <use xlink:href="#mbb19c0b1c1" x="391.788644" y="338.263588" style="stroke: #000000; stroke-width: 0.8"/>
      </g>
     </g>
     <g id="text_3">
      <text style="font-size: 7px; font-family: 'DejaVu Sans'" transform="translate(377.34727 357.486658) rotate(-25)">A3:</text>
      <text style="font-size: 7px; font-family: 'DejaVu Sans'" transform="translate(282.967901 410.145274) rotate(-25)">Almacenamiento de aguas verdes</text>
     </g>
    </g>
    <g id="xtick_4">
     <g id="line2d_4">
      <g>
       <use xlink:href="#mbb19c0b1c1" x="521.683256" y="338.263588" style="stroke: #000000; stroke-width: 0.8"/>
      </g>
     </g>
     <g id="text_4">
      <text style="font-size: 7px; font-family: 'DejaVu Sans'" transform="translate(503.787203 357.486658) rotate(-25)">A4:</text>
      <text style="font-size: 7px; font-family: 'DejaVu Sans'" transform="translate(430.83348 400.525066) rotate(-25)">Aplicación de aguas verdes</text>
      <text style="font-size: 7px; font-family: 'DejaVu Sans'" transform="translate(446.553939 401.843289) rotate(-25)">en campos de pastoreo</text>
     </g>
    </g>
    <g id="xtick_5">
     <g id="line2d_5">
      <g>
       <use xlink:href="#mbb19c0b1c1" x="651.577868" y="338.263588" style="stroke: #000000; stroke-width: 0.8"/>
      </g>
     </g>
     <g id="text_5">
      <text style="font-size: 7px; font-family: 'DejaVu Sans'" transform="translate(633.810928 357.492668) rotate(-25)">B1:</text>
      <text style="font-size: 7px; font-family: 'DejaVu Sans'" transform="translate(593.944697 384.731389) rotate(-25)">Almacenamiento</text>
      <text style="font-size: 7px; font-family: 'DejaVu Sans'" transform="translate(617.367356 382.458018) rotate(-25)">de purines</text>
     </g>
    </g>
    <g id="xtick_6">
     <g id="line2d_6">
      <g>
       <use xlink:href="#mbb19c0b1c1" x="781.47248" y="338.263588" style="stroke: #000000; stroke-width: 0.8"/>
      </g>
     </g>
     <g id="text_6">
      <text style="font-size: 7px; font-family: 'DejaVu Sans'" transform="translate(763.56354 357.492668) rotate(-25)">B2:</text>
      <text style="font-size: 7px; font-family: 'DejaVu Sans'" transform="translate(709.511433 391.717107) rotate(-25)">Aplicación de purines</text>
      <text style="font-size: 7px; font-family: 'DejaVu Sans'" transform="translate(709.648071 400.302185) rotate(-25)">en campo de pastoreo</text>
     </g>
    </g>
   </g>
   <g id="matplotlib.axis_2">
    <g id="ytick_1">
     <g id="line2d_7">
      <path d="M 48.0875 338.263588 
L 865.384399 338.263588 
" clip-path="url(#pdc4da52ec1)" style="fill: none; stroke: #d9d9d9; stroke-width: 0.7; stroke-linecap: square"/>
     </g>
     <g id="line2d_8">
      <defs>
       <path id="m04ba24c5b1" d="M 0 0 
L -3.5 0 
" style="stroke: #000000; stroke-width: 0.8"/>
      </defs>
      <g>
       <use xlink:href="#m04ba24c5b1" x="48.0875" y="338.263588" style="stroke: #000000; stroke-width: 0.8"/>
      </g>
     </g>
     <g id="text_7">
      <text style="font-size: 9px; font-family: 'DejaVu Sans'; text-anchor: end" x="41.0875" y="341.682885" transform="rotate(-0 41.0875 341.682885)">0.0</text>
     </g>
    </g>
    <g id="ytick_2">
     <g id="line2d_9">
      <path d="M 48.0875 299.745177 
L 865.384399 299.745177 
" clip-path="url(#pdc4da52ec1)" style="fill: none; stroke: #d9d9d9; stroke-width: 0.7; stroke-linecap: square"/>
     </g>
     <g id="line2d_10">
      <g>
       <use xlink:href="#m04ba24c5b1" x="48.0875" y="299.745177" style="stroke: #000000; stroke-width: 0.8"/>
      </g>
     </g>
     <g id="text_8">
      <text style="font-size: 9px; font-family: 'DejaVu Sans'; text-anchor: end" x="41.0875" y="303.164473" transform="rotate(-0 41.0875 303.164473)">2.5</text>
     </g>
    </g>
    <g id="ytick_3">
     <g id="line2d_11">
      <path d="M 48.0875 261.226765 
L 865.384399 261.226765 
" clip-path="url(#pdc4da52ec1)" style="fill: none; stroke: #d9d9d9; stroke-width: 0.7; stroke-linecap: square"/>
     </g>
     <g id="line2d_12">
      <g>
       <use xlink:href="#m04ba24c5b1" x="48.0875" y="261.226765" style="stroke: #000000; stroke-width: 0.8"/>
      </g>
     </g>
     <g id="text_9">
      <text style="font-size: 9px; font-family: 'DejaVu Sans'; text-anchor: end" x="41.0875" y="264.646062" transform="rotate(-0 41.0875 264.646062)">5.0</text>
     </g>
    </g>
    <g id="ytick_4">
     <g id="line2d_13">
      <path d="M 48.0875 222.708353 
L 865.384399 222.708353 
" clip-path="url(#pdc4da52ec1)" style="fill: none; stroke: #d9d9d9; stroke-width: 0.7; stroke-linecap: square"/>
     </g>
     <g id="line2d_14">
      <g>
       <use xlink:href="#m04ba24c5b1" x="48.0875" y="222.708353" style="stroke: #000000; stroke-width: 0.8"/>
      </g>
     </g>
     <g id="text_10">
      <text style="font-size: 9px; font-family: 'DejaVu Sans'; text-anchor: end" x="41.0875" y="226.12765" transform="rotate(-0 41.0875 226.12765)">7.5</text>
     </g>
    </g>
    <g id="ytick_5">
     <g id="line2d_15">
      <path d="M 48.0875 184.189941 
L 865.384399 184.189941 
" clip-path="url(#pdc4da52ec1)" style="fill: none; stroke: #d9d9d9; stroke-width: 0.7; stroke-linecap: square"/>
     </g>
     <g id="line2d_16">
      <g>
       <use xlink:href="#m04ba24c5b1" x="48.0875" y="184.189941" style="stroke: #000000; stroke-width: 0.8"/>
      </g>
     </g>
     <g id="text_11">
      <text style="font-size: 9px; font-family: 'DejaVu Sans'; text-anchor: end" x="41.0875" y="187.609238" transform="rotate(-0 41.0875 187.609238)">10.0</text>
     </g>
    </g>
    <g id="ytick_6">
     <g id="line2d_17">
      <path d="M 48.0875 145.671529 
L 865.384399 145.671529 
" clip-path="url(#pdc4da52ec1)" style="fill: none; stroke: #d9d9d9; stroke-width: 0.7; stroke-linecap: square"/>
     </g>
     <g id="line2d_18">
      <g>
       <use xlink:href="#m04ba24c5b1" x="48.0875" y="145.671529" style="stroke: #000000; stroke-width: 0.8"/>
      </g>
     </g>
     <g id="text_12">
      <text style="font-size: 9px; font-family: 'DejaVu Sans'; text-anchor: end" x="41.0875" y="149.090826" transform="rotate(-0 41.0875 149.090826)">12.5</text>
     </g>
    </g>
    <g id="ytick_7">
     <g id="line2d_19">
      <path d="M 48.0875 107.153117 
L 865.384399 107.153117 
" clip-path="url(#pdc4da52ec1)" style="fill: none; stroke: #d9d9d9; stroke-width: 0.7; stroke-linecap: square"/>
     </g>
     <g id="line2d_20">
      <g>
       <use xlink:href="#m04ba24c5b1" x="48.0875" y="107.153117" style="stroke: #000000; stroke-width: 0.8"/>
      </g>
     </g>
     <g id="text_13">
      <text style="font-size: 9px; font-family: 'DejaVu Sans'; text-anchor: end" x="41.0875" y="110.572414" transform="rotate(-0 41.0875 110.572414)">15.0</text>
     </g>
    </g>
    <g id="ytick_8">
     <g id="line2d_21">
      <path d="M 48.0875 68.634706 
L 865.384399 68.634706 
" clip-path="url(#pdc4da52ec1)" style="fill: none; stroke: #d9d9d9; stroke-width: 0.7; stroke-linecap: square"/>
     </g>
     <g id="line2d_22">
      <g>
       <use xlink:href="#m04ba24c5b1" x="48.0875" y="68.634706" style="stroke: #000000; stroke-width: 0.8"/>
      </g>
     </g>
     <g id="text_14">
      <text style="font-size: 9px; font-family: 'DejaVu Sans'; text-anchor: end" x="41.0875" y="72.054003" transform="rotate(-0 41.0875 72.054003)">17.5</text>
     </g>
    </g>
    <g id="ytick_9">
     <g id="line2d_23">
      <path d="M 48.0875 30.116294 
L 865.384399 30.116294 
" clip-path="url(#pdc4da52ec1)" style="fill: none; stroke: #d9d9d9; stroke-width: 0.7; stroke-linecap: square"/>
     </g>
     <g id="line2d_24">
      <g>
       <use xlink:href="#m04ba24c5b1" x="48.0875" y="30.116294" style="stroke: #000000; stroke-width: 0.8"/>
      </g>
     </g>
     <g id="text_15">
      <text style="font-size: 9px; font-family: 'DejaVu Sans'; text-anchor: end" x="41.0875" y="33.535591" transform="rotate(-0 41.0875 33.535591)">20.0</text>
     </g>
    </g>
    <g id="text_16">
     <text style="font-size: 10px; font-family: 'DejaVu Sans'; text-anchor: middle" x="14.96875" y="172.731794" transform="rotate(-90 14.96875 172.731794)">kg NH₃/año</text>
    </g>
   </g>
   <g id="patch_3">
    <path d="M 85.237359 338.263588 
L 131.999419 338.263588 
L 131.999419 136.940712 
L 85.237359 136.940712 
z
" clip-path="url(#pdc4da52ec1)" style="fill: #4d4d4d; stroke: #000000; stroke-width: 0.6; stroke-linejoin: miter"/>
   </g>
   <g id="patch_4">
    <path d="M 215.131971 338.263588 
L 261.894031 338.263588 
L 261.894031 338.263588 
L 215.131971 338.263588 
z
" clip-path="url(#pdc4da52ec1)" style="fill: #4d4d4d; stroke: #000000; stroke-width: 0.6; stroke-linejoin: miter"/>
   </g>
   <g id="patch_5">
    <path d="M 345.026583 338.263588 
L 391.788644 338.263588 
L 391.788644 233.235425 
L 345.026583 233.235425 
z
" clip-path="url(#pdc4da52ec1)" style="fill: #4d4d4d; stroke: #000000; stroke-width: 0.6; stroke-linejoin: miter"/>
   </g>
   <g id="patch_6">
    <path d="M 474.921195 338.263588 
L 521.683256 338.263588 
L 521.683256 260.793789 
L 474.921195 260.793789 
z
" clip-path="url(#pdc4da52ec1)" style="fill: #4d4d4d; stroke: #000000; stroke-width: 0.6; stroke-linejoin: miter"/>
   </g>
   <g id="patch_7">
    <path d="M 604.815807 338.263588 
L 651.577868 338.263588 
L 651.577868 338.263588 
L 604.815807 338.263588 
z
" clip-path="url(#pdc4da52ec1)" style="fill: #4d4d4d; stroke: #000000; stroke-width: 0.6; stroke-linejoin: miter"/>
   </g>
   <g id="patch_8">
    <path d="M 734.710419 338.263588 
L 781.47248 338.263588 
L 781.47248 338.263588 
L 734.710419 338.263588 
z
" clip-path="url(#pdc4da52ec1)" style="fill: #4d4d4d; stroke: #000000; stroke-width: 0.6; stroke-linejoin: miter"/>
   </g>
   <g id="patch_9">
    <path d="M 131.999419 338.263588 
L 178.76148 338.263588 
L 178.76148 338.263588 
L 131.999419 338.263588 
z
" clip-path="url(#pdc4da52ec1)" style="fill: url(#h34342b1783); stroke: #000000; stroke-width: 0.6; stroke-linejoin: miter"/>
   </g>
   <g id="patch_10">
    <path d="M 261.894031 338.263588 
L 308.656092 338.263588 
L 308.656092 338.263588 
L 261.894031 338.263588 
z
" clip-path="url(#pdc4da52ec1)" style="fill: url(#h34342b1783); stroke: #000000; stroke-width: 0.6; stroke-linejoin: miter"/>
   </g>
   <g id="patch_11">
    <path d="M 391.788644 338.263588 
L 438.550704 338.263588 
L 438.550704 338.263588 
L 391.788644 338.263588 
z
" clip-path="url(#pdc4da52ec1)" style="fill: url(#h34342b1783); stroke: #000000; stroke-width: 0.6; stroke-linejoin: miter"/>
   </g>
   <g id="patch_12">
    <path d="M 521.683256 338.263588 
L 568.445316 338.263588 
L 568.445316 338.263588 
L 521.683256 338.263588 
z
" clip-path="url(#pdc4da52ec1)" style="fill: url(#h34342b1783); stroke: #000000; stroke-width: 0.6; stroke-linejoin: miter"/>
   </g>
   <g id="patch_13">
    <path d="M 651.577868 338.263588 
L 698.339928 338.263588 
L 698.339928 22.964933 
L 651.577868 22.964933 
z
" clip-path="url(#pdc4da52ec1)" style="fill: url(#h34342b1783); stroke: #000000; stroke-width: 0.6; stroke-linejoin: miter"/>
   </g>
   <g id="patch_14">
    <path d="M 781.47248 338.263588 
L 828.23454 338.263588 
L 828.23454 206.663105 
L 781.47248 206.663105 
z
" clip-path="url(#pdc4da52ec1)" style="fill: url(#h34342b1783); stroke: #000000; stroke-width: 0.6; stroke-linejoin: miter"/>
   </g>
   <g id="patch_15">
    <path d="M 48.0875 338.263588 
L 48.0875 7.2 
" style="fill: none; stroke: #000000; stroke-width: 0.8; stroke-linejoin: miter; stroke-linecap: square"/>
   </g>
   <g id="patch_16">
    <path d="M 865.384399 338.263588 
L 865.384399 7.2 
" style="fill: none; stroke: #000000; stroke-width: 0.8; stroke-linejoin: miter; stroke-linecap: square"/>
   </g>
   <g id="patch_17">
    <path d="M 48.0875 338.263588 
L 865.384399 338.263588 
" style="fill: none; stroke: #000000; stroke-width: 0.8; stroke-linejoin: miter; stroke-linecap: square"/>
   </g>
   <g id="patch_18">
    <path d="M 48.0875 7.2 
L 865.384399 7.2 
" style="fill: none; stroke: #000000; stroke-width: 0.8; stroke-linejoin: miter; stroke-linecap: square"/>
   </g>
   <g id="legend_1">
    <g id="patch_19">
     <path d="M 779.26143 22.138594 
L 797.26143 22.138594 
L 797.26143 15.838594 
L 779.26143 15.838594 
z
" style="fill: #4d4d4d; stroke: #000000; stroke-width: 0.6; stroke-linejoin: miter"/>
    </g>
    <g id="text_17">
     <text style="font-size: 9px; font-family: 'DejaVu Sans'; text-anchor: start" x="804.46143" y="22.138594" transform="rotate(-0 804.46143 22.138594)">Escenario A</text>
    </g>
    <g id="patch_20">
     <path d="M 779.26143 35.348906 
L 797.26143 35.348906 
L 797.26143 29.048906 
L 779.26143 29.048906 
z
" style="fill: url(#h34342b1783); stroke: #000000; stroke-width: 0.6; stroke-linejoin: miter"/>
    </g>
    <g id="text_18">
     <text style="font-size: 9px; font-family: 'DejaVu Sans'; text-anchor: start" x="804.46143" y="35.348906" transform="rotate(-0 804.46143 35.348906)">Escenario B</text>
    </g>
   </g>
  </g>
 </g>
 <defs>
  <clipPath id="pdc4da52ec1">
   <rect x="48.0875" y="7.2" width="817.296899" height="331.063588"/>
  </clipPath>
 </defs>
 <defs>
  <pattern id="h34342b1783" patternUnits="userSpaceOnUse" x="0" y="0" width="72" height="72">
   <rect x="0" y="0" width="73" height="73" fill="#bdbdbd"/>
   <path d="M -36 36 
L 36 -36 
M -32 40 
L 40 -32 
M -28 44 
L 44 -28 
M -24 48 
L 48 -24 
M -20 52 
L 52 -20 
M -16 56 
L 56 -16 
M -12 60 
L 60 -12 
M -8 64 
L 64 -8 
M -4 68 
L 68 -4 
M 0 72 
L 72 0 
M 4 76 
L 76 4 
M 8 80 
L 80 8 
M 12 84 
L 84 12 
M 16 88 
L 88 16 
M 20 92 
L 92 20 
M 24 96 
L 96 24 
M 28 100 
L 100 28 
M 32 104 
L 104 32 
M 36 108 
L 108 36 
" style="fill: #000000; stroke: #000000; stroke-width: 1.0; stroke-linecap: butt; stroke-linejoin: miter"/>
  </pattern>
 </defs>
</svg>
