<?xml version="1.0" encoding="utf-8" standalone="no"?>
<!DOCTYPE svg PUBLIC "-//W3C//DTD SVG 1.1//EN"
  "http://www.w3.org/Graphics/SVG/1.1/DTD/svg11.dtd">
<svg xmlns:xlink="http://www.w3.org/1999/xlink" width="557.037188pt" height="382.66466pt" viewBox="0 0 557.037188 382.66466" xmlns="http://www.w3.org/2000/svg" version="1.1">
 <metadata>
  <rdf:RDF xmlns:dc="http://purl.org/dc/elements/1.1/" xmlns:cc="http://creativecommons.org/ns#" xmlns:rdf="http://www.w3.org/1999/02/22-rdf-syntax-ns#">
   <cc:Work>
    <dc:type rdf:resource="http://purl.org/dc/dcmitype/StillImage"/>
    <dc:format>image/svg+xml</dc:format>
    <dc:creator>
     <cc:Agent>
      <dc:title>Matplotlib v3.10.9, https://matplotlib.org/</dc:title>
     </cc:Agent>
    </dc:creator>
   </cc:Work>
  </rdf:RDF>
 </metadata>
 <defs>
  <style type="text/css">*{stroke-linejoin: round; stroke-linecap: butt}</style>
 </defs>
 <g id="figure_1">
  <g id="patch_1">
   <path d="M 0 382.66466
L 557.037188 382.66466
L 557.037188 0
L 0 0
z
" style="fill: #ffffff"/>
  </g>
  <g id="axes_1">
   <g id="patch_2">
    <path d="M 45.227188 302.263588
L 549.837188 302.263588
L 549.837188 7.2
L 45.227188 7.2
z
" style="fill: #ffffff"/>
   </g>
   <g id="matplotlib.axis_1">
    <g id="xtick_1">
     <g id="line2d_1">
      <defs>
       <path id="m8512bdd903" d="M 0 0
L 0 3.5
" style="stroke: #000000; stroke-width: 0.8"/>
      </defs>
      <g>
       <use xlink:href="#m8512bdd903" x="112.557847" y="302.263588" style="stroke: #000000; stroke-width: 0.8"/>
      </g>
     </g>
     <g id="text_1">
      <text style="font-size: 7px; font-family: 'DejaVu Sans'" transform="translate(98.116474 321.486658) rotate(-25)">A1:</text>
      <text style="font-size: 7px; font-family: 'DejaVu Sans'" transform="translate(66.822782 344.72794) rotate(-25)">Precomposteo</text>
     </g>
    </g>
    <g id="xtick_2">
     <g id="line2d_2">
      <g>
       <use xlink:href="#m8512bdd903" x="235.874074" y="302.263588" style="stroke: #000000; stroke-width: 0.8"/>
      </g>
     </g>
     <g id="text_2">
      <text style="font-size: 7px; font-family: 'DejaVu Sans'" transform="translate(221.432701 321.486658) rotate(-25)">A2:</text>
      <text style="font-size: 7px; font-family: 'DejaVu Sans'" transform="translate(176.570449 351.055063) rotate(-25)">Lombricompostaje</text>
     </g>
    </g>
    <g id="xtick_3">
     <g id="line2d_3">
      <g>
       <use xlink:href="#m8512bdd903" x="359.190301" y="302.263588" style="stroke: #000000; stroke-width: 0.8"/>
      </g>
     </g>
     <g id="text_3">
      <text style="font-size: 7px; font-family: 'DejaVu Sans'" transform="translate(344.748928 321.486658) rotate(-25)">A3:</text>
      <text style="font-size: 7px; font-family: 'DejaVu Sans'" transform="translate(250.369558 374.145274) rotate(-25)">Almacenamiento de aguas verdes</text>
     </g>
    </g>
    <g id="xtick_4">
     <g id="line2d_4">
      <g>
       <use xlink:href="#m8512bdd903" x="482.506528" y="302.263588" style="stroke: #000000; stroke-width: 0.8"/>
      </g>
     </g>
     <g id="text_4">
      <text style="font-size: 7px; font-family: 'DejaVu Sans'" transform="translate(464.739588 321.492668) rotate(-25)">B1:</text>
      <text style="font-size: 7px; font-family: 'DejaVu Sans'" transform="translate(424.873357 348.731389) rotate(-25)">Almacenamiento</text>
      <text style="font-size: 7px; font-family: 'DejaVu Sans'" transform="translate(448.296016 346.458018) rotate(-25)">de purines</text>
     </g>
    </g>
   </g>
   <g id="matplotlib.axis_2">
    <g id="ytick_1">
     <g id="line2d_5">
      <path d="M 45.227188 302.263588
L 549.837188 302.263588
" clip-path="url(#p68c178ee25)" style="fill: none; stroke: #d9d9d9; stroke-width: 0.7; stroke-linecap: square"/>
     </g>
     <g id="line2d_6">
      <defs>
       <path id="me50acbb753" d="M 0 0
L -3.5 0
" style="stroke: #000000; stroke-width: 0.8"/>
      </defs>
      <g>
       <use xlink:href="#me50acbb753" x="45.227188" y="302.263588" style="stroke: #000000; stroke-width: 0.8"/>
      </g>
     </g>
     <g id="text_5">
      <text style="font-size: 9px; font-family: 'DejaVu Sans'; text-anchor: end" x="38.227188" y="305.682885" transform="rotate(-0 38.227188 305.682885)">0</text>
     </g>
    </g>
    <g id="ytick_2">
     <g id="line2d_7">
      <path d="M 45.227188 264.287956
L 549.837188 264.287956
" clip-path="url(#p68c178ee25)" style="fill: none; stroke: #d9d9d9; stroke-width: 0.7; stroke-linecap: square"/>
     </g>
     <g id="line2d_8">
      <g>
       <use xlink:href="#me50acbb753" x="45.227188" y="264.287956" style="stroke: #000000; stroke-width: 0.8"/>
      </g>
     </g>
     <g id="text_6">
      <text style="font-size: 9px; font-family: 'DejaVu Sans'; text-anchor: end" x="38.227188" y="267.707253" transform="rotate(-0 38.227188 267.707253)">25</text>
     </g>
    </g>
    <g id="ytick_3">
     <g id="line2d_9">
      <path d="M 45.227188 226.312323
L 549.837188 226.312323
" clip-path="url(#p68c178ee25)" style="fill: none; stroke: #d9d9d9; stroke-width: 0.7; stroke-linecap: square"/>
     </g>
     <g id="line2d_10">
      <g>
       <use xlink:href="#me50acbb753" x="45.227188" y="226.312323" style="stroke: #000000; stroke-width: 0.8"/>
      </g>
     </g>
     <g id="text_7">
      <text style="font-size: 9px; font-family: 'DejaVu Sans'; text-anchor: end" x="38.227188" y="229.73162" transform="rotate(-0 38.227188 229.73162)">50</text>
     </g>
    </g>
    <g id="ytick_4">
     <g id="line2d_11">
      <path d="M 45.227188 188.33669
L 549.837188 188.33669
" clip-path="url(#p68c178ee25)" style="fill: none; stroke: #d9d9d9; stroke-width: 0.7; stroke-linecap: square"/>
     </g>
     <g id="line2d_12">
      <g>
       <use xlink:href="#me50acbb753" x="45.227188" y="188.33669" style="stroke: #000000; stroke-width: 0.8"/>
      </g>
     </g>
     <g id="text_8">
      <text style="font-size: 9px; font-family: 'DejaVu Sans'; text-anchor: end" x="38.227188" y="191.755987" transform="rotate(-0 38.227188 191.755987)">75</text>
     </g>
    </g>
    <g id="ytick_5">
     <g id="line2d_13">
      <path d="M 45.227188 150.361057
L 549.837188 150.361057
" clip-path="url(#p68c178ee25)" style="fill: none; stroke: #d9d9d9; stroke-width: 0.7; stroke-linecap: square"/>
     </g>
     <g id="line2d_14">
      <g>
       <use xlink:href="#me50acbb753" x="45.227188" y="150.361057" style="stroke: #000000; stroke-width: 0.8"/>
      </g>
     </g>
     <g id="text_9">
      <text style="font-size: 9px; font-family: 'DejaVu Sans'; text-anchor: end" x="38.227188" y="153.780354" transform="rotate(-0 38.227188 153.780354)">100</text>
     </g>
    </g>
    <g id="ytick_6">
     <g id="line2d_15">
      <path d="M 45.227188 112.385425
L 549.837188 112.385425
" clip-path="url(#p68c178ee25)" style="fill: none; stroke: #d9d9d9; stroke-width: 0.7; stroke-linecap: square"/>
     </g>
     <g id="line2d_16">
      <g>
       <use xlink:href="#me50acbb753" x="45.227188" y="112.385425" style="stroke: #000000; stroke-width: 0.8"/>
      </g>
     </g>
     <g id="text_10">
      <text style="font-size: 9px; font-family: 'DejaVu Sans'; text-anchor: end" x="38.227188" y="115.804721" transform="rotate(-0 38.227188 115.804721)">125</text>
     </g>
    </g>
    <g id="ytick_7">
     <g id="line2d_17">
      <path d="M 45.227188 74.409792
L 549.837188 74.409792
" clip-path="url(#p68c178ee25)" style="fill: none; stroke: #d9d9d9; stroke-width: 0.7; stroke-linecap: square"/>
     </g>
     <g id="line2d_18">
      <g>
       <use xlink:href="#me50acbb753" x="45.227188" y="74.409792" style="stroke: #000000; stroke-width: 0.8"/>
      </g>
     </g>
     <g id="text_11">
      <text style="font-size: 9px; font-family: 'DejaVu Sans'; text-anchor: end" x="38.227188" y="77.829089" transform="rotate(-0 38.227188 77.829089)">150</text>
     </g>
    </g>
    <g id="ytick_8">
     <g id="line2d_19">
      <path d="M 45.227188 36.434159
L 549.837188 36.434159
" clip-path="url(#p68c178ee25)" style="fill: none; stroke: #d9d9d9; stroke-width: 0.7; stroke-linecap: square"/>
     </g>
     <g id="line2d_20">
      <g>
       <use xlink:href="#me50acbb753" x="45.227188" y="36.434159" style="stroke: #000000; stroke-width: 0.8"/>
      </g>
     </g>
     <g id="text_12">
      <text style="font-size: 9px; font-family: 'DejaVu Sans'; text-anchor: end" x="38.227188" y="39.853456" transform="rotate(-0 38.227188 39.853456)">175</text>
     </g>
    </g>
    <g id="text_13">
     <text style="font-size: 10px; font-family: 'DejaVu Sans'; text-anchor: middle" x="14.96875" y="154.731794" transform="rotate(-90 14.96875 154.731794)">kg CH₄/año</text>
    </g>
   </g>
   <g id="patch_3">
    <path d="M 68.164006 302.263588
L 112.557847 302.263588
L 112.557847 289.934274
L 68.164006 289.934274
z
" clip-path="url(#p68c178ee25)" style="fill: #4d4d4d; stroke: #000000; stroke-width: 0.6; stroke-linejoin: miter"/>
   </g>
   <g id="patch_4">
    <path d="M 191.480232 302.263588
L 235.874074 302.263588
L 235.874074 295.228357
L 191.480232 295.228357
z
" clip-path="url(#p68c178ee25)" style="fill: #4d4d4d; stroke: #000000; stroke-width: 0.6; stroke-linejoin: miter"/>
   </g>
   <g id="patch_5">
    <path d="M 314.796459 302.263588
L 359.190301 302.263588
L 359.190301 208.656233
L 314.796459 208.656233
z
" clip-path="url(#p68c178ee25)" style="fill: #4d4d4d; stroke: #000000; stroke-width: 0.6; stroke-linejoin: miter"/>
   </g>
   <g id="patch_6">
    <path d="M 438.112686 302.263588
L 482.506528 302.263588
L 482.506528 302.263588
L 438.112686 302.263588
z
" clip-path="url(#p68c178ee25)" style="fill: #4d4d4d; stroke: #000000; stroke-width: 0.6; stroke-linejoin: miter"/>
   </g>
   <g id="patch_7">
    <path d="M 112.557847 302.263588
L 156.951689 302.263588
L 156.951689 302.263588
L 112.557847 302.263588
z
" clip-path="url(#p68c178ee25)" style="fill: url(#h616a057982); stroke: #000000; stroke-width: 0.6; stroke-linejoin: miter"/>
   </g>
   <g id="patch_8">
    <path d="M 235.874074 302.263588
L 280.267916 302.263588
L 280.267916 302.263588
L 235.874074 302.263588
z
" clip-path="url(#p68c178ee25)" style="fill: url(#h616a057982); stroke: #000000; stroke-width: 0.6; stroke-linejoin: miter"/>
   </g>
   <g id="patch_9">
    <path d="M 359.190301 302.263588
L 403.584143 302.263588
L 403.584143 302.263588
L 359.190301 302.263588
z
" clip-path="url(#p68c178ee25)" style="fill: url(#h616a057982); stroke: #000000; stroke-width: 0.6; stroke-linejoin: miter"/>
   </g>
   <g id="patch_10">
    <path d="M 482.506528 302.263588
L 526.900369 302.263588
L 526.900369 21.250647
L 482.506528 21.250647
z
" clip-path="url(#p68c178ee25)" style="fill: url(#h616a057982); stroke: #000000; stroke-width: 0.6; stroke-linejoin: miter"/>
   </g>
   <g id="patch_11">
    <path d="M 45.227188 302.263588
L 45.227188 7.2
" style="fill: none; stroke: #000000; stroke-width: 0.8; stroke-linejoin: miter; stroke-linecap: square"/>
   </g>
   <g id="patch_12">
    <path d="M 549.837188 302.263588
L 549.837188 7.2
" style="fill: none; stroke: #000000; stroke-width: 0.8; stroke-linejoin: miter; stroke-linecap: square"/>
   </g>
   <g id="patch_13">
    <path d="M 45.227188 302.263588
L 549.837188 302.263588
" style="fill: none; stroke: #000000; stroke-width: 0.8; stroke-linejoin: miter; stroke-linecap: square"/>
   </g>
   <g id="patch_14">
    <path d="M 45.227188 7.2
L 549.837188 7.2
" style="fill: none; stroke: #000000; stroke-width: 0.8; stroke-linejoin: miter; stroke-linecap: square"/>
   </g>
   <g id="legend_1">
    <g id="patch_15">
     <path d="M 53.327188 22.138594
L 71.327188 22.138594
L 71.327188 15.838594
L 53.327188 15.838594
z
" style="fill: #4d4d4d; stroke: #000000; stroke-width: 0.6; stroke-linejoin: miter"/>
    </g>
    <g id="text_14">
     <text style="font-size: 9px; font-family: 'DejaVu Sans'; text-anchor: start" x="78.527188" y="22.138594" transform="rotate(-0 78.527188 22.138594)">Escenario A</text>
    </g>
    <g id="patch_16">
     <path d="M 53.327188 35.348906
L 71.327188 35.348906
L 71.327188 29.048906
L 53.327188 29.048906
z
" style="fill: url(#h616a057982); stroke: #000000; stroke-width: 0.6; stroke-linejoin: miter"/>
    </g>
    <g id="text_15">
     <text style="font-size: 9px; font-family: 'DejaVu Sans'; text-anchor: start" x="78.527188" y="35.348906" transform="rotate(-0 78.527188 35.348906)">Escenario B</text>
    </g>
   </g>
  </g>
 </g>
 <defs>
  <clipPath id="p68c178ee25">
   <rect x="45.227188" y="7.2" width="504.61" height="295.063588"/>
  </clipPath>
 </defs>
 <defs>
  <pattern id="h616a057982" patternUnits="userSpaceOnUse" x="0" y="0" width="72" height="72">
   <rect x="0" y="0" width="73" height="73" fill="#bdbdbd"/>
   <path d="M -36 36
L 36 -36
M -32 40
L 40 -32
M -28 44
L 44 -28
M -24 48
L 48 -24
M -20 52
L 52 -20
M -16 56
L 56 -16
M -12 60
L 60 -12
M -8 64
L 64 -8
M -4 68
L 68 -4
M 0 72
L 72 0
M 4 76
L 76 4
M 8 80
L 80 8
M 12 84
L 84 12
M 16 88
L 88 16
M 20 92
L 92 20
M 24 96
L 96 24
M 28 100
L 100 28
M 32 104
L 104 32
M 36 108
L 108 36
" style="fill: #000000; stroke: #000000; stroke-width: 1.0; stroke-linecap: butt; stroke-linejoin: miter"/>
  </pattern>
 </defs>
</svg>
