<?xml version="1.0" encoding="utf-8" standalone="no"?>
<!DOCTYPE svg PUBLIC "-//W3C//DTD SVG 1.1//EN"
  "http://www.w3.org/Graphics/SVG/1.1/DTD/svg11.dtd">
<svg xmlns:xlink="http://www.w3.org/1999/xlink" width="460.364375pt" height="323.580625pt" viewBox="0 0 460.364375 323.580625" xmlns="http://www.w3.org/2000/svg" version="1.1">
 <metadata>
  <rdf:RDF xmlns:dc="http://purl.org/dc/elements/1.1/" xmlns:cc="http://creativecommons.org/ns#" xmlns:rdf="http://www.w3.org/1999/02/22-rdf-syntax-ns#">
   <cc:Work>
    <dc:type rdf:resource="http://purl.org/dc/dcmitype/StillImage"/>
    <dc:date>2026-05-20T00:31:54.715445</dc:date>
    <dc:format>image/svg+xml</dc:format>
    <dc:creator>
     <cc:Agent>
      <dc:title>Matplotlib v3.10.9, https://matplotlib.org/</dc:title>
     </cc:Agent>
    </dc:creator>
   </cc:Work>
  </rdf:RDF>
 </metadata>
 <defs>
  <style type="text/css">*{stroke-linejoin: round; stroke-linecap: butt}</style>
 </defs>
 <g id="figure_1">
  <g id="patch_1">
   <path d="M 0 323.580625 
L 460.364375 323.580625 
L 460.364375 0 
L 0 0 
z
" style="fill: #ffffff"/>
  </g>
  <g id="axes_1">
   <g id="patch_2">
    <path d="M 33.604375 301.638125 
L 453.164375 301.638125 
L 453.164375 22.318125 
L 33.604375 22.318125 
z
" style="fill: #ffffff"/>
   </g>
   <g id="matplotlib.axis_1">
    <g id="xtick_1">
     <g id="line2d_1">
      <defs>
       <path id="m1ac08c6d11" d="M 0 0 
L 0 3.5 
" style="stroke: #000000; stroke-width: 0.8"/>
      </defs>
      <g>
       <use xlink:href="#m1ac08c6d11" x="137.43488" y="301.638125" style="stroke: #000000; stroke-width: 0.8"/>
      </g>
     </g>
     <g id="text_1">
      <text style="font-size: 8px; font-family: 'DejaVu Sans'; text-anchor: middle" x="137.43488" y="314.716875" transform="rotate(-0 137.43488 314.716875)">Escenario A</text>
     </g>
    </g>
    <g id="xtick_2">
     <g id="line2d_2">
      <g>
       <use xlink:href="#m1ac08c6d11" x="349.33387" y="301.638125" style="stroke: #000000; stroke-width: 0.8"/>
      </g>
     </g>
     <g id="text_2">
      <text style="font-size: 8px; font-family: 'DejaVu Sans'; text-anchor: middle" x="349.33387" y="314.716875" transform="rotate(-0 349.33387 314.716875)">Escenario B</text>
     </g>
    </g>
   </g>
   <g id="matplotlib.axis_2">
    <g id="ytick_1">
     <g id="line2d_3">
      <path d="M 33.604375 301.638125 
L 453.164375 301.638125 
" clip-path="url(#pde6f261cf4)" style="fill: none; stroke: #d9d9d9; stroke-width: 0.7; stroke-linecap: square"/>
     </g>
     <g id="line2d_4">
      <defs>
       <path id="mcd1164ca8c" d="M 0 0 
L -3.5 0 
" style="stroke: #000000; stroke-width: 0.8"/>
      </defs>
      <g>
       <use xlink:href="#mcd1164ca8c" x="33.604375" y="301.638125" style="stroke: #000000; stroke-width: 0.8"/>
      </g>
     </g>
     <g id="text_3">
      <text style="font-size: 9px; font-family: 'DejaVu Sans'; text-anchor: end" x="26.604375" y="305.057422" transform="rotate(-0 26.604375 305.057422)">0</text>
     </g>
    </g>
    <g id="ytick_2">
     <g id="line2d_5">
      <path d="M 33.604375 241.525592 
L 453.164375 241.525592 
" clip-path="url(#pde6f261cf4)" style="fill: none; stroke: #d9d9d9; stroke-width: 0.7; stroke-linecap: square"/>
     </g>
     <g id="line2d_6">
      <g>
       <use xlink:href="#mcd1164ca8c" x="33.604375" y="241.525592" style="stroke: #000000; stroke-width: 0.8"/>
      </g>
     </g>
     <g id="text_4">
      <text style="font-size: 9px; font-family: 'DejaVu Sans'; text-anchor: end" x="26.604375" y="244.944889" transform="rotate(-0 26.604375 244.944889)">1</text>
     </g>
    </g>
    <g id="ytick_3">
     <g id="line2d_7">
      <path d="M 33.604375 181.413059 
L 453.164375 181.413059 
" clip-path="url(#pde6f261cf4)" style="fill: none; stroke: #d9d9d9; stroke-width: 0.7; stroke-linecap: square"/>
     </g>
     <g id="line2d_8">
      <g>
       <use xlink:href="#mcd1164ca8c" x="33.604375" y="181.413059" style="stroke: #000000; stroke-width: 0.8"/>
      </g>
     </g>
     <g id="text_5">
      <text style="font-size: 9px; font-family: 'DejaVu Sans'; text-anchor: end" x="26.604375" y="184.832356" transform="rotate(-0 26.604375 184.832356)">2</text>
     </g>
    </g>
    <g id="ytick_4">
     <g id="line2d_9">
      <path d="M 33.604375 121.300526 
L 453.164375 121.300526 
" clip-path="url(#pde6f261cf4)" style="fill: none; stroke: #d9d9d9; stroke-width: 0.7; stroke-linecap: square"/>
     </g>
     <g id="line2d_10">
      <g>
       <use xlink:href="#mcd1164ca8c" x="33.604375" y="121.300526" style="stroke: #000000; stroke-width: 0.8"/>
      </g>
     </g>
     <g id="text_6">
      <text style="font-size: 9px; font-family: 'DejaVu Sans'; text-anchor: end" x="26.604375" y="124.719823" transform="rotate(-0 26.604375 124.719823)">3</text>
     </g>
    </g>
    <g id="ytick_5">
     <g id="line2d_11">
      <path d="M 33.604375 61.187993 
L 453.164375 61.187993 
" clip-path="url(#pde6f261cf4)" style="fill: none; stroke: #d9d9d9; stroke-width: 0.7; stroke-linecap: square"/>
     </g>
     <g id="line2d_12">
      <g>
       <use xlink:href="#mcd1164ca8c" x="33.604375" y="61.187993" style="stroke: #000000; stroke-width: 0.8"/>
      </g>
     </g>
     <g id="text_7">
      <text style="font-size: 9px; font-family: 'DejaVu Sans'; text-anchor: end" x="26.604375" y="64.607289" transform="rotate(-0 26.604375 64.607289)">4</text>
     </g>
    </g>
    <g id="text_8">
     <text style="font-size: 10px; font-family: 'DejaVu Sans'; text-anchor: middle" x="14.798438" y="161.978125" transform="rotate(-90 14.798438 161.978125)">kg PO4-eq/ano</text>
    </g>
   </g>
   <g id="patch_3">
    <path d="M 52.675284 301.638125 
L 222.194476 301.638125 
L 222.194476 82.843866 
L 52.675284 82.843866 
z
" clip-path="url(#pde6f261cf4)" style="fill: #4d4d4d; stroke: #000000; stroke-width: 0.6; stroke-linejoin: miter"/>
   </g>
   <g id="patch_4">
    <path d="M 264.574274 301.638125 
L 434.093466 301.638125 
L 434.093466 35.619077 
L 264.574274 35.619077 
z
" clip-path="url(#pde6f261cf4)" style="fill: url(#h79f3bf49f5); stroke: #000000; stroke-width: 0.6; stroke-linejoin: miter"/>
   </g>
   <g id="patch_5">
    <path d="M 33.604375 301.638125 
L 33.604375 22.318125 
" style="fill: none; stroke: #000000; stroke-width: 0.8; stroke-linejoin: miter; stroke-linecap: square"/>
   </g>
   <g id="patch_6">
    <path d="M 453.164375 301.638125 
L 453.164375 22.318125 
" style="fill: none; stroke: #000000; stroke-width: 0.8; stroke-linejoin: miter; stroke-linecap: square"/>
   </g>
   <g id="patch_7">
    <path d="M 33.604375 301.638125 
L 453.164375 301.638125 
" style="fill: none; stroke: #000000; stroke-width: 0.8; stroke-linejoin: miter; stroke-linecap: square"/>
   </g>
   <g id="patch_8">
    <path d="M 33.604375 22.318125 
L 453.164375 22.318125 
" style="fill: none; stroke: #000000; stroke-width: 0.8; stroke-linejoin: miter; stroke-linecap: square"/>
   </g>
   <g id="text_9">
    <text style="font-size: 12px; font-family: 'DejaVu Sans'; text-anchor: middle" x="243.384375" y="16.318125" transform="rotate(-0 243.384375 16.318125)">Impacto total de eutrofizacion: escenarios A y B</text>
   </g>
  </g>
 </g>
 <defs>
  <clipPath id="pde6f261cf4">
   <rect x="33.604375" y="22.318125" width="419.56" height="279.32"/>
  </clipPath>
 </defs>
 <defs>
  <pattern id="h79f3bf49f5" patternUnits="userSpaceOnUse" x="0" y="0" width="72" height="72">
   <rect x="0" y="0" width="73" height="73" fill="#bdbdbd"/>
   <path d="M -36 36 
L 36 -36 
M -32 40 
L 40 -32 
M -28 44 
L 44 -28 
M -24 48 
L 48 -24 
M -20 52 
L 52 -20 
M -16 56 
L 56 -16 
M -12 60 
L 60 -12 
M -8 64 
L 64 -8 
M -4 68 
L 68 -4 
M 0 72 
L 72 0 
M 4 76 
L 76 4 
M 8 80 
L 80 8 
M 12 84 
L 84 12 
M 16 88 
L 88 16 
M 20 92 
L 92 20 
M 24 96 
L 96 24 
M 28 100 
L 100 28 
M 32 104 
L 104 32 
M 36 108 
L 108 36 
" style="fill: #000000; stroke: #000000; stroke-width: 1.0; stroke-linecap: butt; stroke-linejoin: miter"/>
  </pattern>
 </defs>
</svg>
