<?xml version="1.0" encoding="utf-8" standalone="no"?>
<!DOCTYPE svg PUBLIC "-//W3C//DTD SVG 1.1//EN"
  "http://www.w3.org/Graphics/SVG/1.1/DTD/svg11.dtd">
<svg xmlns:xlink="http://www.w3.org/1999/xlink" width="460.534688pt" height="331.7425pt" viewBox="0 0 460.534688 331.7425" xmlns="http://www.w3.org/2000/svg" version="1.1">
 <metadata>
  <rdf:RDF xmlns:dc="http://purl.org/dc/elements/1.1/" xmlns:cc="http://creativecommons.org/ns#" xmlns:rdf="http://www.w3.org/1999/02/22-rdf-syntax-ns#">
   <cc:Work>
    <dc:type rdf:resource="http://purl.org/dc/dcmitype/StillImage"/>
    <dc:date>2026-07-25T14:39:21.607362</dc:date>
    <dc:format>image/svg+xml</dc:format>
    <dc:creator>
     <cc:Agent>
      <dc:title>Matplotlib v3.10.9, https://matplotlib.org/</dc:title>
     </cc:Agent>
    </dc:creator>
   </cc:Work>
  </rdf:RDF>
 </metadata>
 <defs>
  <style type="text/css">*{stroke-linejoin: round; stroke-linecap: butt}</style>
 </defs>
 <g id="figure_1">
  <g id="patch_1">
   <path d="M 0 331.7425 
L 460.534688 331.7425 
L 460.534688 0 
L 0 0 
z
" style="fill: #ffffff"/>
  </g>
  <g id="axes_1">
   <g id="patch_2">
    <path d="M 33.774688 307.3 
L 453.334688 307.3 
L 453.334688 7.2 
L 33.774688 7.2 
z
" style="fill: #ffffff"/>
   </g>
   <g id="matplotlib.axis_1">
    <g id="xtick_1">
     <g id="line2d_1">
      <defs>
       <path id="m7d76c0dc8e" d="M 0 0 
L 0 3.5 
" style="stroke: #000000; stroke-width: 0.8"/>
      </defs>
      <g>
       <use xlink:href="#m7d76c0dc8e" x="137.605193" y="307.3" style="stroke: #000000; stroke-width: 0.8"/>
      </g>
     </g>
     <g id="text_1">
      <text style="font-size: 8px; font-family: 'DejaVu Sans'; text-anchor: middle" x="137.605193" y="322.87875" transform="rotate(-0 137.605193 322.87875)">Escenario A</text>
     </g>
    </g>
    <g id="xtick_2">
     <g id="line2d_2">
      <g>
       <use xlink:href="#m7d76c0dc8e" x="349.504182" y="307.3" style="stroke: #000000; stroke-width: 0.8"/>
      </g>
     </g>
     <g id="text_2">
      <text style="font-size: 8px; font-family: 'DejaVu Sans'; text-anchor: middle" x="349.504182" y="322.87875" transform="rotate(-0 349.504182 322.87875)">Escenario B</text>
     </g>
    </g>
   </g>
   <g id="matplotlib.axis_2">
    <g id="ytick_1">
     <g id="line2d_3">
      <path d="M 33.774688 307.3 
L 453.334688 307.3 
" clip-path="url(#p2734e39082)" style="fill: none; stroke: #d9d9d9; stroke-width: 0.7; stroke-linecap: square"/>
     </g>
     <g id="line2d_4">
      <defs>
       <path id="mb8951dd51f" d="M 0 0 
L -3.5 0 
" style="stroke: #000000; stroke-width: 0.8"/>
      </defs>
      <g>
       <use xlink:href="#mb8951dd51f" x="33.774688" y="307.3" style="stroke: #000000; stroke-width: 0.8"/>
      </g>
     </g>
     <g id="text_3">
      <text style="font-size: 9px; font-family: 'DejaVu Sans'; text-anchor: end" x="26.774688" y="310.719297" transform="rotate(-0 26.774688 310.719297)">0</text>
     </g>
    </g>
    <g id="ytick_2">
     <g id="line2d_5">
      <path d="M 33.774688 242.715397 
L 453.334688 242.715397 
" clip-path="url(#p2734e39082)" style="fill: none; stroke: #d9d9d9; stroke-width: 0.7; stroke-linecap: square"/>
     </g>
     <g id="line2d_6">
      <g>
       <use xlink:href="#mb8951dd51f" x="33.774688" y="242.715397" style="stroke: #000000; stroke-width: 0.8"/>
      </g>
     </g>
     <g id="text_4">
      <text style="font-size: 9px; font-family: 'DejaVu Sans'; text-anchor: end" x="26.774688" y="246.134694" transform="rotate(-0 26.774688 246.134694)">1</text>
     </g>
    </g>
    <g id="ytick_3">
     <g id="line2d_7">
      <path d="M 33.774688 178.130795 
L 453.334688 178.130795 
" clip-path="url(#p2734e39082)" style="fill: none; stroke: #d9d9d9; stroke-width: 0.7; stroke-linecap: square"/>
     </g>
     <g id="line2d_8">
      <g>
       <use xlink:href="#mb8951dd51f" x="33.774688" y="178.130795" style="stroke: #000000; stroke-width: 0.8"/>
      </g>
     </g>
     <g id="text_5">
      <text style="font-size: 9px; font-family: 'DejaVu Sans'; text-anchor: end" x="26.774688" y="181.550092" transform="rotate(-0 26.774688 181.550092)">2</text>
     </g>
    </g>
    <g id="ytick_4">
     <g id="line2d_9">
      <path d="M 33.774688 113.546192 
L 453.334688 113.546192 
" clip-path="url(#p2734e39082)" style="fill: none; stroke: #d9d9d9; stroke-width: 0.7; stroke-linecap: square"/>
     </g>
     <g id="line2d_10">
      <g>
       <use xlink:href="#mb8951dd51f" x="33.774688" y="113.546192" style="stroke: #000000; stroke-width: 0.8"/>
      </g>
     </g>
     <g id="text_6">
      <text style="font-size: 9px; font-family: 'DejaVu Sans'; text-anchor: end" x="26.774688" y="116.965489" transform="rotate(-0 26.774688 116.965489)">3</text>
     </g>
    </g>
    <g id="ytick_5">
     <g id="line2d_11">
      <path d="M 33.774688 48.96159 
L 453.334688 48.96159 
" clip-path="url(#p2734e39082)" style="fill: none; stroke: #d9d9d9; stroke-width: 0.7; stroke-linecap: square"/>
     </g>
     <g id="line2d_12">
      <g>
       <use xlink:href="#mb8951dd51f" x="33.774688" y="48.96159" style="stroke: #000000; stroke-width: 0.8"/>
      </g>
     </g>
     <g id="text_7">
      <text style="font-size: 9px; font-family: 'DejaVu Sans'; text-anchor: end" x="26.774688" y="52.380887" transform="rotate(-0 26.774688 52.380887)">4</text>
     </g>
    </g>
    <g id="text_8">
     <text style="font-size: 10px; font-family: 'DejaVu Sans'; text-anchor: middle" x="14.96875" y="157.25" transform="rotate(-90 14.96875 157.25)">kg PO₄-eq/año</text>
    </g>
   </g>
   <g id="patch_3">
    <path d="M 52.845597 307.3 
L 222.364789 307.3 
L 222.364789 72.228551 
L 52.845597 72.228551 
z
" clip-path="url(#p2734e39082)" style="fill: #4d4d4d; stroke: #000000; stroke-width: 0.6; stroke-linejoin: miter"/>
   </g>
   <g id="patch_4">
    <path d="M 264.744586 307.3 
L 434.263778 307.3 
L 434.263778 21.490476 
L 264.744586 21.490476 
z
" clip-path="url(#p2734e39082)" style="fill: url(#h38662a5aea); stroke: #000000; stroke-width: 0.6; stroke-linejoin: miter"/>
   </g>
   <g id="patch_5">
    <path d="M 33.774688 307.3 
L 33.774688 7.2 
" style="fill: none; stroke: #000000; stroke-width: 0.8; stroke-linejoin: miter; stroke-linecap: square"/>
   </g>
   <g id="patch_6">
    <path d="M 453.334688 307.3 
L 453.334688 7.2 
" style="fill: none; stroke: #000000; stroke-width: 0.8; stroke-linejoin: miter; stroke-linecap: square"/>
   </g>
   <g id="patch_7">
    <path d="M 33.774687 307.3 
L 453.334688 307.3 
" style="fill: none; stroke: #000000; stroke-width: 0.8; stroke-linejoin: miter; stroke-linecap: square"/>
   </g>
   <g id="patch_8">
    <path d="M 33.774687 7.2 
L 453.334688 7.2 
" style="fill: none; stroke: #000000; stroke-width: 0.8; stroke-linejoin: miter; stroke-linecap: square"/>
   </g>
  </g>
 </g>
 <defs>
  <clipPath id="p2734e39082">
   <rect x="33.774688" y="7.2" width="419.56" height="300.1"/>
  </clipPath>
 </defs>
 <defs>
  <pattern id="h38662a5aea" patternUnits="userSpaceOnUse" x="0" y="0" width="72" height="72">
   <rect x="0" y="0" width="73" height="73" fill="#bdbdbd"/>
   <path d="M -36 36 
L 36 -36 
M -32 40 
L 40 -32 
M -28 44 
L 44 -28 
M -24 48 
L 48 -24 
M -20 52 
L 52 -20 
M -16 56 
L 56 -16 
M -12 60 
L 60 -12 
M -8 64 
L 64 -8 
M -4 68 
L 68 -4 
M 0 72 
L 72 0 
M 4 76 
L 76 4 
M 8 80 
L 80 8 
M 12 84 
L 84 12 
M 16 88 
L 88 16 
M 20 92 
L 92 20 
M 24 96 
L 96 24 
M 28 100 
L 100 28 
M 32 104 
L 104 32 
M 36 108 
L 108 36 
" style="fill: #000000; stroke: #000000; stroke-width: 1.0; stroke-linecap: butt; stroke-linejoin: miter"/>
  </pattern>
 </defs>
</svg>
