<?xml version="1.0" encoding="utf-8" standalone="no"?>
<!DOCTYPE svg PUBLIC "-//W3C//DTD SVG 1.1//EN"
  "http://www.w3.org/Graphics/SVG/1.1/DTD/svg11.dtd">
<svg xmlns:xlink="http://www.w3.org/1999/xlink" width="618.833437pt" height="346.1425pt" viewBox="0 0 618.833437 346.1425" xmlns="http://www.w3.org/2000/svg" version="1.1">
 <metadata>
  <rdf:RDF xmlns:dc="http://purl.org/dc/elements/1.1/" xmlns:cc="http://creativecommons.org/ns#" xmlns:rdf="http://www.w3.org/1999/02/22-rdf-syntax-ns#">
   <cc:Work>
    <dc:type rdf:resource="http://purl.org/dc/dcmitype/StillImage"/>
    <dc:format>image/svg+xml</dc:format>
    <dc:creator>
     <cc:Agent>
      <dc:title>Matplotlib v3.10.9, https://matplotlib.org/</dc:title>
     </cc:Agent>
    </dc:creator>
   </cc:Work>
  </rdf:RDF>
 </metadata>
 <defs>
  <style type="text/css">*{stroke-linejoin: round; stroke-linecap: butt}</style>
 </defs>
 <g id="figure_1">
  <g id="patch_1">
   <path d="M 0 346.1425
L 618.833437 346.1425
L 618.833437 0
L 0 0
z
" style="fill: #ffffff"/>
  </g>
  <g id="axes_1">
   <g id="patch_2">
    <path d="M 50.953437 321.7
L 611.633437 321.7
L 611.633437 7.2
L 50.953437 7.2
z
" style="fill: #ffffff"/>
   </g>
   <g id="matplotlib.axis_1">
    <g id="xtick_1">
     <g id="line2d_1">
      <defs>
       <path id="m8512bdd903" d="M 0 0
L 0 3.5
" style="stroke: #000000; stroke-width: 0.8"/>
      </defs>
      <g>
       <use xlink:href="#m8512bdd903" x="108.518485" y="321.7" style="stroke: #000000; stroke-width: 0.8"/>
      </g>
     </g>
     <g id="text_1">
      <text style="font-size: 8px; font-family: 'DejaVu Sans'; text-anchor: middle" x="108.518485" y="337.27875" transform="rotate(-0 108.518485 337.27875)">A1</text>
     </g>
    </g>
    <g id="xtick_2">
     <g id="line2d_2">
      <g>
       <use xlink:href="#m8512bdd903" x="197.628466" y="321.7" style="stroke: #000000; stroke-width: 0.8"/>
      </g>
     </g>
     <g id="text_2">
      <text style="font-size: 8px; font-family: 'DejaVu Sans'; text-anchor: middle" x="197.628466" y="337.27875" transform="rotate(-0 197.628466 337.27875)">A2</text>
     </g>
    </g>
    <g id="xtick_3">
     <g id="line2d_3">
      <g>
       <use xlink:href="#m8512bdd903" x="286.738447" y="321.7" style="stroke: #000000; stroke-width: 0.8"/>
      </g>
     </g>
     <g id="text_3">
      <text style="font-size: 8px; font-family: 'DejaVu Sans'; text-anchor: middle" x="286.738447" y="337.27875" transform="rotate(-0 286.738447 337.27875)">A3</text>
     </g>
    </g>
    <g id="xtick_4">
     <g id="line2d_4">
      <g>
       <use xlink:href="#m8512bdd903" x="375.848428" y="321.7" style="stroke: #000000; stroke-width: 0.8"/>
      </g>
     </g>
     <g id="text_4">
      <text style="font-size: 8px; font-family: 'DejaVu Sans'; text-anchor: middle" x="375.848428" y="337.27875" transform="rotate(-0 375.848428 337.27875)">A4</text>
     </g>
    </g>
    <g id="xtick_5">
     <g id="line2d_5">
      <g>
       <use xlink:href="#m8512bdd903" x="464.958409" y="321.7" style="stroke: #000000; stroke-width: 0.8"/>
      </g>
     </g>
     <g id="text_5">
      <text style="font-size: 8px; font-family: 'DejaVu Sans'; text-anchor: middle" x="464.958409" y="337.27875" transform="rotate(-0 464.958409 337.27875)">B1</text>
     </g>
    </g>
    <g id="xtick_6">
     <g id="line2d_6">
      <g>
       <use xlink:href="#m8512bdd903" x="554.06839" y="321.7" style="stroke: #000000; stroke-width: 0.8"/>
      </g>
     </g>
     <g id="text_6">
      <text style="font-size: 8px; font-family: 'DejaVu Sans'; text-anchor: middle" x="554.06839" y="337.27875" transform="rotate(-0 554.06839 337.27875)">B2</text>
     </g>
    </g>
   </g>
   <g id="matplotlib.axis_2">
    <g id="ytick_1">
     <g id="line2d_7">
      <path d="M 50.953437 321.7
L 611.633437 321.7
" clip-path="url(#paf4445e2b4)" style="fill: none; stroke: #d9d9d9; stroke-width: 0.7; stroke-linecap: square"/>
     </g>
     <g id="line2d_8">
      <defs>
       <path id="me50acbb753" d="M 0 0
L -3.5 0
" style="stroke: #000000; stroke-width: 0.8"/>
      </defs>
      <g>
       <use xlink:href="#me50acbb753" x="50.953437" y="321.7" style="stroke: #000000; stroke-width: 0.8"/>
      </g>
     </g>
     <g id="text_7">
      <text style="font-size: 9px; font-family: 'DejaVu Sans'; text-anchor: end" x="43.953437" y="325.119297" transform="rotate(-0 43.953437 325.119297)">0</text>
     </g>
    </g>
    <g id="ytick_2">
     <g id="line2d_9">
      <path d="M 50.953437 263.290123
L 611.633437 263.290123
" clip-path="url(#paf4445e2b4)" style="fill: none; stroke: #d9d9d9; stroke-width: 0.7; stroke-linecap: square"/>
     </g>
     <g id="line2d_10">
      <g>
       <use xlink:href="#me50acbb753" x="50.953437" y="263.290123" style="stroke: #000000; stroke-width: 0.8"/>
      </g>
     </g>
     <g id="text_8">
      <text style="font-size: 9px; font-family: 'DejaVu Sans'; text-anchor: end" x="43.953437" y="266.70942" transform="rotate(-0 43.953437 266.70942)">1000</text>
     </g>
    </g>
    <g id="ytick_3">
     <g id="line2d_11">
      <path d="M 50.953437 204.880246
L 611.633437 204.880246
" clip-path="url(#paf4445e2b4)" style="fill: none; stroke: #d9d9d9; stroke-width: 0.7; stroke-linecap: square"/>
     </g>
     <g id="line2d_12">
      <g>
       <use xlink:href="#me50acbb753" x="50.953437" y="204.880246" style="stroke: #000000; stroke-width: 0.8"/>
      </g>
     </g>
     <g id="text_9">
      <text style="font-size: 9px; font-family: 'DejaVu Sans'; text-anchor: end" x="43.953437" y="208.299543" transform="rotate(-0 43.953437 208.299543)">2000</text>
     </g>
    </g>
    <g id="ytick_4">
     <g id="line2d_13">
      <path d="M 50.953437 146.470369
L 611.633437 146.470369
" clip-path="url(#paf4445e2b4)" style="fill: none; stroke: #d9d9d9; stroke-width: 0.7; stroke-linecap: square"/>
     </g>
     <g id="line2d_14">
      <g>
       <use xlink:href="#me50acbb753" x="50.953437" y="146.470369" style="stroke: #000000; stroke-width: 0.8"/>
      </g>
     </g>
     <g id="text_10">
      <text style="font-size: 9px; font-family: 'DejaVu Sans'; text-anchor: end" x="43.953437" y="149.889666" transform="rotate(-0 43.953437 149.889666)">3000</text>
     </g>
    </g>
    <g id="ytick_5">
     <g id="line2d_15">
      <path d="M 50.953437 88.060492
L 611.633437 88.060492
" clip-path="url(#paf4445e2b4)" style="fill: none; stroke: #d9d9d9; stroke-width: 0.7; stroke-linecap: square"/>
     </g>
     <g id="line2d_16">
      <g>
       <use xlink:href="#me50acbb753" x="50.953437" y="88.060492" style="stroke: #000000; stroke-width: 0.8"/>
      </g>
     </g>
     <g id="text_11">
      <text style="font-size: 9px; font-family: 'DejaVu Sans'; text-anchor: end" x="43.953437" y="91.479789" transform="rotate(-0 43.953437 91.479789)">4000</text>
     </g>
    </g>
    <g id="ytick_6">
     <g id="line2d_17">
      <path d="M 50.953437 29.650615
L 611.633437 29.650615
" clip-path="url(#paf4445e2b4)" style="fill: none; stroke: #d9d9d9; stroke-width: 0.7; stroke-linecap: square"/>
     </g>
     <g id="line2d_18">
      <g>
       <use xlink:href="#me50acbb753" x="50.953437" y="29.650615" style="stroke: #000000; stroke-width: 0.8"/>
      </g>
     </g>
     <g id="text_12">
      <text style="font-size: 9px; font-family: 'DejaVu Sans'; text-anchor: end" x="43.953437" y="33.069911" transform="rotate(-0 43.953437 33.069911)">5000</text>
     </g>
    </g>
    <g id="text_13">
     <text style="font-size: 10px; font-family: 'DejaVu Sans'; text-anchor: middle" x="14.96875" y="164.45" transform="rotate(-90 14.96875 164.45)">kg CO₂-eq/año</text>
    </g>
   </g>
   <g id="patch_3">
    <path d="M 76.438892 321.7
L 108.518485 321.7
L 108.518485 290.978087
L 76.438892 290.978087
z
" clip-path="url(#paf4445e2b4)" style="fill: #4d4d4d; stroke: #000000; stroke-width: 0.6; stroke-linejoin: miter"/>
   </g>
   <g id="patch_4">
    <path d="M 165.548873 321.7
L 197.628466 321.7
L 197.628466 307.734412
L 165.548873 307.734412
z
" clip-path="url(#paf4445e2b4)" style="fill: #4d4d4d; stroke: #000000; stroke-width: 0.6; stroke-linejoin: miter"/>
   </g>
   <g id="patch_5">
    <path d="M 254.658854 321.7
L 286.738447 321.7
L 286.738447 221.840499
L 254.658854 221.840499
z
" clip-path="url(#paf4445e2b4)" style="fill: #4d4d4d; stroke: #000000; stroke-width: 0.6; stroke-linejoin: miter"/>
   </g>
   <g id="patch_6">
    <path d="M 343.768835 321.7
L 375.848428 321.7
L 375.848428 281.081061
L 343.768835 281.081061
z
" clip-path="url(#paf4445e2b4)" style="fill: #4d4d4d; stroke: #000000; stroke-width: 0.6; stroke-linejoin: miter"/>
   </g>
   <g id="patch_7">
    <path d="M 432.878816 321.7
L 464.958409 321.7
L 464.958409 321.7
L 432.878816 321.7
z
" clip-path="url(#paf4445e2b4)" style="fill: #4d4d4d; stroke: #000000; stroke-width: 0.6; stroke-linejoin: miter"/>
   </g>
   <g id="patch_8">
    <path d="M 521.988797 321.7
L 554.06839 321.7
L 554.06839 321.7
L 521.988797 321.7
z
" clip-path="url(#paf4445e2b4)" style="fill: #4d4d4d; stroke: #000000; stroke-width: 0.6; stroke-linejoin: miter"/>
   </g>
   <g id="patch_9">
    <path d="M 108.518485 321.7
L 140.598078 321.7
L 140.598078 321.7
L 108.518485 321.7
z
" clip-path="url(#paf4445e2b4)" style="fill: url(#h616a057982); stroke: #000000; stroke-width: 0.6; stroke-linejoin: miter"/>
   </g>
   <g id="patch_10">
    <path d="M 197.628466 321.7
L 229.708059 321.7
L 229.708059 321.7
L 197.628466 321.7
z
" clip-path="url(#paf4445e2b4)" style="fill: url(#h616a057982); stroke: #000000; stroke-width: 0.6; stroke-linejoin: miter"/>
   </g>
   <g id="patch_11">
    <path d="M 286.738447 321.7
L 318.81804 321.7
L 318.81804 321.7
L 286.738447 321.7
z
" clip-path="url(#paf4445e2b4)" style="fill: url(#h616a057982); stroke: #000000; stroke-width: 0.6; stroke-linejoin: miter"/>
   </g>
   <g id="patch_12">
    <path d="M 375.848428 321.7
L 407.928021 321.7
L 407.928021 321.7
L 375.848428 321.7
z
" clip-path="url(#paf4445e2b4)" style="fill: url(#h616a057982); stroke: #000000; stroke-width: 0.6; stroke-linejoin: miter"/>
   </g>
   <g id="patch_13">
    <path d="M 464.958409 321.7
L 497.038002 321.7
L 497.038002 22.17619
L 464.958409 22.17619
z
" clip-path="url(#paf4445e2b4)" style="fill: url(#h616a057982); stroke: #000000; stroke-width: 0.6; stroke-linejoin: miter"/>
   </g>
   <g id="patch_14">
    <path d="M 554.06839 321.7
L 586.147983 321.7
L 586.147983 255.910498
L 554.06839 255.910498
z
" clip-path="url(#paf4445e2b4)" style="fill: url(#h616a057982); stroke: #000000; stroke-width: 0.6; stroke-linejoin: miter"/>
   </g>
   <g id="patch_15">
    <path d="M 50.953437 321.7
L 50.953437 7.2
" style="fill: none; stroke: #000000; stroke-width: 0.8; stroke-linejoin: miter; stroke-linecap: square"/>
   </g>
   <g id="patch_16">
    <path d="M 611.633437 321.7
L 611.633437 7.2
" style="fill: none; stroke: #000000; stroke-width: 0.8; stroke-linejoin: miter; stroke-linecap: square"/>
   </g>
   <g id="patch_17">
    <path d="M 50.953438 321.7
L 611.633437 321.7
" style="fill: none; stroke: #000000; stroke-width: 0.8; stroke-linejoin: miter; stroke-linecap: square"/>
   </g>
   <g id="patch_18">
    <path d="M 50.953438 7.2
L 611.633437 7.2
" style="fill: none; stroke: #000000; stroke-width: 0.8; stroke-linejoin: miter; stroke-linecap: square"/>
   </g>
   <g id="legend_1">
    <g id="patch_19">
     <path d="M 525.510469 22.138594
L 543.510469 22.138594
L 543.510469 15.838594
L 525.510469 15.838594
z
" style="fill: #4d4d4d; stroke: #000000; stroke-width: 0.6; stroke-linejoin: miter"/>
    </g>
    <g id="text_14">
     <text style="font-size: 9px; font-family: 'DejaVu Sans'; text-anchor: start" x="550.710469" y="22.138594" transform="rotate(-0 550.710469 22.138594)">Escenario A</text>
    </g>
    <g id="patch_20">
     <path d="M 525.510469 35.348906
L 543.510469 35.348906
L 543.510469 29.048906
L 525.510469 29.048906
z
" style="fill: url(#h616a057982); stroke: #000000; stroke-width: 0.6; stroke-linejoin: miter"/>
    </g>
    <g id="text_15">
     <text style="font-size: 9px; font-family: 'DejaVu Sans'; text-anchor: start" x="550.710469" y="35.348906" transform="rotate(-0 550.710469 35.348906)">Escenario B</text>
    </g>
   </g>
  </g>
 </g>
 <defs>
  <clipPath id="paf4445e2b4">
   <rect x="50.953437" y="7.2" width="560.68" height="314.5"/>
  </clipPath>
 </defs>
 <defs>
  <pattern id="h616a057982" patternUnits="userSpaceOnUse" x="0" y="0" width="72" height="72">
   <rect x="0" y="0" width="73" height="73" fill="#bdbdbd"/>
   <path d="M -36 36
L 36 -36
M -32 40
L 40 -32
M -28 44
L 44 -28
M -24 48
L 48 -24
M -20 52
L 52 -20
M -16 56
L 56 -16
M -12 60
L 60 -12
M -8 64
L 64 -8
M -4 68
L 68 -4
M 0 72
L 72 0
M 4 76
L 76 4
M 8 80
L 80 8
M 12 84
L 84 12
M 16 88
L 88 16
M 20 92
L 92 20
M 24 96
L 96 24
M 28 100
L 100 28
M 32 104
L 104 32
M 36 108
L 108 36
" style="fill: #000000; stroke: #000000; stroke-width: 1.0; stroke-linecap: butt; stroke-linejoin: miter"/>
  </pattern>
 </defs>
</svg>
