<?xml version="1.0" encoding="utf-8" standalone="no"?>
<!DOCTYPE svg PUBLIC "-//W3C//DTD SVG 1.1//EN"
  "http://www.w3.org/Graphics/SVG/1.1/DTD/svg11.dtd">
<svg xmlns:xlink="http://www.w3.org/1999/xlink" width="872.357837pt" height="417.702785pt" viewBox="0 0 872.357837 417.702785" xmlns="http://www.w3.org/2000/svg" version="1.1">
 <metadata>
  <rdf:RDF xmlns:dc="http://purl.org/dc/elements/1.1/" xmlns:cc="http://creativecommons.org/ns#" xmlns:rdf="http://www.w3.org/1999/02/22-rdf-syntax-ns#">
   <cc:Work>
    <dc:type rdf:resource="http://purl.org/dc/dcmitype/StillImage"/>
    <dc:date>2026-05-20T22:10:37.568443</dc:date>
    <dc:format>image/svg+xml</dc:format>
    <dc:creator>
     <cc:Agent>
      <dc:title>Matplotlib v3.10.9, https://matplotlib.org/</dc:title>
     </cc:Agent>
    </dc:creator>
   </cc:Work>
  </rdf:RDF>
 </metadata>
 <defs>
  <style type="text/css">*{stroke-linejoin: round; stroke-linecap: butt}</style>
 </defs>
 <g id="figure_1">
  <g id="patch_1">
   <path d="M 0 417.702785 
L 872.357837 417.702785 
L 872.357837 0 
L 0 0 
z
" style="fill: #ffffff"/>
  </g>
  <g id="axes_1">
   <g id="patch_2">
    <path d="M 42.190938 337.301713 
L 865.157837 337.301713 
L 865.157837 22.318125 
L 42.190938 22.318125 
z
" style="fill: #ffffff"/>
   </g>
   <g id="matplotlib.axis_1">
    <g id="xtick_1">
     <g id="line2d_1">
      <defs>
       <path id="m37f3b3951d" d="M 0 0 
L 0 3.5 
" style="stroke: #000000; stroke-width: 0.8"/>
      </defs>
      <g>
       <use xlink:href="#m37f3b3951d" x="126.684996" y="337.301713" style="stroke: #000000; stroke-width: 0.8"/>
      </g>
     </g>
     <g id="text_1">
      <text style="font-size: 7px; font-family: 'DejaVu Sans'" transform="translate(112.243623 356.524783) rotate(-25)">A1:</text>
      <text style="font-size: 7px; font-family: 'DejaVu Sans'" transform="translate(80.949931 379.766065) rotate(-25)">Precomposteo</text>
     </g>
    </g>
    <g id="xtick_2">
     <g id="line2d_2">
      <g>
       <use xlink:href="#m37f3b3951d" x="257.480753" y="337.301713" style="stroke: #000000; stroke-width: 0.8"/>
      </g>
     </g>
     <g id="text_2">
      <text style="font-size: 7px; font-family: 'DejaVu Sans'" transform="translate(243.039379 356.524783) rotate(-25)">A2:</text>
      <text style="font-size: 7px; font-family: 'DejaVu Sans'" transform="translate(198.177127 386.093188) rotate(-25)">Lombricompostaje</text>
     </g>
    </g>
    <g id="xtick_3">
     <g id="line2d_3">
      <g>
       <use xlink:href="#m37f3b3951d" x="388.276509" y="337.301713" style="stroke: #000000; stroke-width: 0.8"/>
      </g>
     </g>
     <g id="text_3">
      <text style="font-size: 7px; font-family: 'DejaVu Sans'" transform="translate(373.835136 356.524783) rotate(-25)">A3:</text>
      <text style="font-size: 7px; font-family: 'DejaVu Sans'" transform="translate(279.455766 409.183399) rotate(-25)">Almacenamiento de aguas verdes</text>
     </g>
    </g>
    <g id="xtick_4">
     <g id="line2d_4">
      <g>
       <use xlink:href="#m37f3b3951d" x="519.072265" y="337.301713" style="stroke: #000000; stroke-width: 0.8"/>
      </g>
     </g>
     <g id="text_4">
      <text style="font-size: 7px; font-family: 'DejaVu Sans'" transform="translate(501.176212 356.524783) rotate(-25)">A4:</text>
      <text style="font-size: 7px; font-family: 'DejaVu Sans'" transform="translate(428.22249 399.563191) rotate(-25)">Aplicación de aguas verdes</text>
      <text style="font-size: 7px; font-family: 'DejaVu Sans'" transform="translate(443.942948 400.881414) rotate(-25)">en campos de pastoreo</text>
     </g>
    </g>
    <g id="xtick_5">
     <g id="line2d_5">
      <g>
       <use xlink:href="#m37f3b3951d" x="649.868022" y="337.301713" style="stroke: #000000; stroke-width: 0.8"/>
      </g>
     </g>
     <g id="text_5">
      <text style="font-size: 7px; font-family: 'DejaVu Sans'" transform="translate(632.101082 356.530793) rotate(-25)">B1:</text>
      <text style="font-size: 7px; font-family: 'DejaVu Sans'" transform="translate(592.234851 383.769514) rotate(-25)">Almacenamiento</text>
      <text style="font-size: 7px; font-family: 'DejaVu Sans'" transform="translate(615.65751 381.496143) rotate(-25)">de purines</text>
     </g>
    </g>
    <g id="xtick_6">
     <g id="line2d_6">
      <g>
       <use xlink:href="#m37f3b3951d" x="780.663778" y="337.301713" style="stroke: #000000; stroke-width: 0.8"/>
      </g>
     </g>
     <g id="text_6">
      <text style="font-size: 7px; font-family: 'DejaVu Sans'" transform="translate(766.067518 356.530793) rotate(-25)">B2:</text>
      <text style="font-size: 7px; font-family: 'DejaVu Sans'" transform="translate(714.205136 389.734147) rotate(-25)">Aplicación en campo</text>
     </g>
    </g>
   </g>
   <g id="matplotlib.axis_2">
    <g id="ytick_1">
     <g id="line2d_7">
      <path d="M 42.190938 337.301713 
L 865.157837 337.301713 
" clip-path="url(#pf67367bcae)" style="fill: none; stroke: #d9d9d9; stroke-width: 0.7; stroke-linecap: square"/>
     </g>
     <g id="line2d_8">
      <defs>
       <path id="mb4b0b9ffd2" d="M 0 0 
L -3.5 0 
" style="stroke: #000000; stroke-width: 0.8"/>
      </defs>
      <g>
       <use xlink:href="#mb4b0b9ffd2" x="42.190938" y="337.301713" style="stroke: #000000; stroke-width: 0.8"/>
      </g>
     </g>
     <g id="text_7">
      <text style="font-size: 9px; font-family: 'DejaVu Sans'; text-anchor: end" x="35.190938" y="340.72101" transform="rotate(-0 35.190938 340.72101)">0.0</text>
     </g>
    </g>
    <g id="ytick_2">
     <g id="line2d_9">
      <path d="M 42.190938 299.728759 
L 865.157837 299.728759 
" clip-path="url(#pf67367bcae)" style="fill: none; stroke: #d9d9d9; stroke-width: 0.7; stroke-linecap: square"/>
     </g>
     <g id="line2d_10">
      <g>
       <use xlink:href="#mb4b0b9ffd2" x="42.190938" y="299.728759" style="stroke: #000000; stroke-width: 0.8"/>
      </g>
     </g>
     <g id="text_8">
      <text style="font-size: 9px; font-family: 'DejaVu Sans'; text-anchor: end" x="35.190938" y="303.148056" transform="rotate(-0 35.190938 303.148056)">0.5</text>
     </g>
    </g>
    <g id="ytick_3">
     <g id="line2d_11">
      <path d="M 42.190938 262.155804 
L 865.157837 262.155804 
" clip-path="url(#pf67367bcae)" style="fill: none; stroke: #d9d9d9; stroke-width: 0.7; stroke-linecap: square"/>
     </g>
     <g id="line2d_12">
      <g>
       <use xlink:href="#mb4b0b9ffd2" x="42.190938" y="262.155804" style="stroke: #000000; stroke-width: 0.8"/>
      </g>
     </g>
     <g id="text_9">
      <text style="font-size: 9px; font-family: 'DejaVu Sans'; text-anchor: end" x="35.190938" y="265.575101" transform="rotate(-0 35.190938 265.575101)">1.0</text>
     </g>
    </g>
    <g id="ytick_4">
     <g id="line2d_13">
      <path d="M 42.190938 224.582849 
L 865.157837 224.582849 
" clip-path="url(#pf67367bcae)" style="fill: none; stroke: #d9d9d9; stroke-width: 0.7; stroke-linecap: square"/>
     </g>
     <g id="line2d_14">
      <g>
       <use xlink:href="#mb4b0b9ffd2" x="42.190938" y="224.582849" style="stroke: #000000; stroke-width: 0.8"/>
      </g>
     </g>
     <g id="text_10">
      <text style="font-size: 9px; font-family: 'DejaVu Sans'; text-anchor: end" x="35.190938" y="228.002146" transform="rotate(-0 35.190938 228.002146)">1.5</text>
     </g>
    </g>
    <g id="ytick_5">
     <g id="line2d_15">
      <path d="M 42.190938 187.009895 
L 865.157837 187.009895 
" clip-path="url(#pf67367bcae)" style="fill: none; stroke: #d9d9d9; stroke-width: 0.7; stroke-linecap: square"/>
     </g>
     <g id="line2d_16">
      <g>
       <use xlink:href="#mb4b0b9ffd2" x="42.190938" y="187.009895" style="stroke: #000000; stroke-width: 0.8"/>
      </g>
     </g>
     <g id="text_11">
      <text style="font-size: 9px; font-family: 'DejaVu Sans'; text-anchor: end" x="35.190938" y="190.429192" transform="rotate(-0 35.190938 190.429192)">2.0</text>
     </g>
    </g>
    <g id="ytick_6">
     <g id="line2d_17">
      <path d="M 42.190938 149.43694 
L 865.157837 149.43694 
" clip-path="url(#pf67367bcae)" style="fill: none; stroke: #d9d9d9; stroke-width: 0.7; stroke-linecap: square"/>
     </g>
     <g id="line2d_18">
      <g>
       <use xlink:href="#mb4b0b9ffd2" x="42.190938" y="149.43694" style="stroke: #000000; stroke-width: 0.8"/>
      </g>
     </g>
     <g id="text_12">
      <text style="font-size: 9px; font-family: 'DejaVu Sans'; text-anchor: end" x="35.190938" y="152.856237" transform="rotate(-0 35.190938 152.856237)">2.5</text>
     </g>
    </g>
    <g id="ytick_7">
     <g id="line2d_19">
      <path d="M 42.190938 111.863985 
L 865.157837 111.863985 
" clip-path="url(#pf67367bcae)" style="fill: none; stroke: #d9d9d9; stroke-width: 0.7; stroke-linecap: square"/>
     </g>
     <g id="line2d_20">
      <g>
       <use xlink:href="#mb4b0b9ffd2" x="42.190938" y="111.863985" style="stroke: #000000; stroke-width: 0.8"/>
      </g>
     </g>
     <g id="text_13">
      <text style="font-size: 9px; font-family: 'DejaVu Sans'; text-anchor: end" x="35.190938" y="115.283282" transform="rotate(-0 35.190938 115.283282)">3.0</text>
     </g>
    </g>
    <g id="ytick_8">
     <g id="line2d_21">
      <path d="M 42.190938 74.291031 
L 865.157837 74.291031 
" clip-path="url(#pf67367bcae)" style="fill: none; stroke: #d9d9d9; stroke-width: 0.7; stroke-linecap: square"/>
     </g>
     <g id="line2d_22">
      <g>
       <use xlink:href="#mb4b0b9ffd2" x="42.190938" y="74.291031" style="stroke: #000000; stroke-width: 0.8"/>
      </g>
     </g>
     <g id="text_14">
      <text style="font-size: 9px; font-family: 'DejaVu Sans'; text-anchor: end" x="35.190938" y="77.710328" transform="rotate(-0 35.190938 77.710328)">3.5</text>
     </g>
    </g>
    <g id="ytick_9">
     <g id="line2d_23">
      <path d="M 42.190938 36.718076 
L 865.157837 36.718076 
" clip-path="url(#pf67367bcae)" style="fill: none; stroke: #d9d9d9; stroke-width: 0.7; stroke-linecap: square"/>
     </g>
     <g id="line2d_24">
      <g>
       <use xlink:href="#mb4b0b9ffd2" x="42.190938" y="36.718076" style="stroke: #000000; stroke-width: 0.8"/>
      </g>
     </g>
     <g id="text_15">
      <text style="font-size: 9px; font-family: 'DejaVu Sans'; text-anchor: end" x="35.190938" y="40.137373" transform="rotate(-0 35.190938 40.137373)">4.0</text>
     </g>
    </g>
    <g id="text_16">
     <text style="font-size: 10px; font-family: 'DejaVu Sans'; text-anchor: middle" x="14.798438" y="179.809919" transform="rotate(-90 14.798438 179.809919)">kg NH3/ano</text>
    </g>
   </g>
   <g id="patch_3">
    <path d="M 79.598524 337.301713 
L 126.684996 337.301713 
L 126.684996 70.187885 
L 79.598524 70.187885 
z
" clip-path="url(#pf67367bcae)" style="fill: #4d4d4d; stroke: #000000; stroke-width: 0.6; stroke-linejoin: miter"/>
   </g>
   <g id="patch_4">
    <path d="M 210.39428 337.301713 
L 257.480753 337.301713 
L 257.480753 337.301713 
L 210.39428 337.301713 
z
" clip-path="url(#pf67367bcae)" style="fill: #4d4d4d; stroke: #000000; stroke-width: 0.6; stroke-linejoin: miter"/>
   </g>
   <g id="patch_5">
    <path d="M 341.190037 337.301713 
L 388.276509 337.301713 
L 388.276509 316.302808 
L 341.190037 316.302808 
z
" clip-path="url(#pf67367bcae)" style="fill: #4d4d4d; stroke: #000000; stroke-width: 0.6; stroke-linejoin: miter"/>
   </g>
   <g id="patch_6">
    <path d="M 471.985793 337.301713 
L 519.072265 337.301713 
L 519.072265 232.703095 
L 471.985793 232.703095 
z
" clip-path="url(#pf67367bcae)" style="fill: #4d4d4d; stroke: #000000; stroke-width: 0.6; stroke-linejoin: miter"/>
   </g>
   <g id="patch_7">
    <path d="M 602.781549 337.301713 
L 649.868022 337.301713 
L 649.868022 337.301713 
L 602.781549 337.301713 
z
" clip-path="url(#pf67367bcae)" style="fill: #4d4d4d; stroke: #000000; stroke-width: 0.6; stroke-linejoin: miter"/>
   </g>
   <g id="patch_8">
    <path d="M 733.577306 337.301713 
L 780.663778 337.301713 
L 780.663778 337.301713 
L 733.577306 337.301713 
z
" clip-path="url(#pf67367bcae)" style="fill: #4d4d4d; stroke: #000000; stroke-width: 0.6; stroke-linejoin: miter"/>
   </g>
   <g id="patch_9">
    <path d="M 126.684996 337.301713 
L 173.771468 337.301713 
L 173.771468 337.301713 
L 126.684996 337.301713 
z
" clip-path="url(#pf67367bcae)" style="fill: url(#h58028bf924); stroke: #000000; stroke-width: 0.6; stroke-linejoin: miter"/>
   </g>
   <g id="patch_10">
    <path d="M 257.480753 337.301713 
L 304.567225 337.301713 
L 304.567225 337.301713 
L 257.480753 337.301713 
z
" clip-path="url(#pf67367bcae)" style="fill: url(#h58028bf924); stroke: #000000; stroke-width: 0.6; stroke-linejoin: miter"/>
   </g>
   <g id="patch_11">
    <path d="M 388.276509 337.301713 
L 435.362981 337.301713 
L 435.362981 337.301713 
L 388.276509 337.301713 
z
" clip-path="url(#pf67367bcae)" style="fill: url(#h58028bf924); stroke: #000000; stroke-width: 0.6; stroke-linejoin: miter"/>
   </g>
   <g id="patch_12">
    <path d="M 519.072265 337.301713 
L 566.158738 337.301713 
L 566.158738 337.301713 
L 519.072265 337.301713 
z
" clip-path="url(#pf67367bcae)" style="fill: url(#h58028bf924); stroke: #000000; stroke-width: 0.6; stroke-linejoin: miter"/>
   </g>
   <g id="patch_13">
    <path d="M 649.868022 337.301713 
L 696.954494 337.301713 
L 696.954494 37.317343 
L 649.868022 37.317343 
z
" clip-path="url(#pf67367bcae)" style="fill: url(#h58028bf924); stroke: #000000; stroke-width: 0.6; stroke-linejoin: miter"/>
   </g>
   <g id="patch_14">
    <path d="M 780.663778 337.301713 
L 827.75025 337.301713 
L 827.75025 159.811489 
L 780.663778 159.811489 
z
" clip-path="url(#pf67367bcae)" style="fill: url(#h58028bf924); stroke: #000000; stroke-width: 0.6; stroke-linejoin: miter"/>
   </g>
   <g id="patch_15">
    <path d="M 42.190938 337.301713 
L 42.190938 22.318125 
" style="fill: none; stroke: #000000; stroke-width: 0.8; stroke-linejoin: miter; stroke-linecap: square"/>
   </g>
   <g id="patch_16">
    <path d="M 865.157837 337.301713 
L 865.157837 22.318125 
" style="fill: none; stroke: #000000; stroke-width: 0.8; stroke-linejoin: miter; stroke-linecap: square"/>
   </g>
   <g id="patch_17">
    <path d="M 42.190938 337.301713 
L 865.157837 337.301713 
" style="fill: none; stroke: #000000; stroke-width: 0.8; stroke-linejoin: miter; stroke-linecap: square"/>
   </g>
   <g id="patch_18">
    <path d="M 42.190938 22.318125 
L 865.157837 22.318125 
" style="fill: none; stroke: #000000; stroke-width: 0.8; stroke-linejoin: miter; stroke-linecap: square"/>
   </g>
   <g id="text_17">
    <text style="font-size: 12px; font-family: 'DejaVu Sans'; text-anchor: middle" x="453.674387" y="16.318125" transform="rotate(-0 453.674387 16.318125)">Emisiones de amoniaco por proceso y escenario</text>
   </g>
   <g id="legend_1">
    <g id="patch_19">
     <path d="M 779.034868 37.256719 
L 797.034868 37.256719 
L 797.034868 30.956719 
L 779.034868 30.956719 
z
" style="fill: #4d4d4d; stroke: #000000; stroke-width: 0.6; stroke-linejoin: miter"/>
    </g>
    <g id="text_18">
     <text style="font-size: 9px; font-family: 'DejaVu Sans'; text-anchor: start" x="804.234868" y="37.256719" transform="rotate(-0 804.234868 37.256719)">Escenario A</text>
    </g>
    <g id="patch_20">
     <path d="M 779.034868 50.467031 
L 797.034868 50.467031 
L 797.034868 44.167031 
L 779.034868 44.167031 
z
" style="fill: url(#h58028bf924); stroke: #000000; stroke-width: 0.6; stroke-linejoin: miter"/>
    </g>
    <g id="text_19">
     <text style="font-size: 9px; font-family: 'DejaVu Sans'; text-anchor: start" x="804.234868" y="50.467031" transform="rotate(-0 804.234868 50.467031)">Escenario B</text>
    </g>
   </g>
  </g>
 </g>
 <defs>
  <clipPath id="pf67367bcae">
   <rect x="42.190938" y="22.318125" width="822.966899" height="314.983588"/>
  </clipPath>
 </defs>
 <defs>
  <pattern id="h58028bf924" patternUnits="userSpaceOnUse" x="0" y="0" width="72" height="72">
   <rect x="0" y="0" width="73" height="73" fill="#bdbdbd"/>
   <path d="M -36 36 
L 36 -36 
M -32 40 
L 40 -32 
M -28 44 
L 44 -28 
M -24 48 
L 48 -24 
M -20 52 
L 52 -20 
M -16 56 
L 56 -16 
M -12 60 
L 60 -12 
M -8 64 
L 64 -8 
M -4 68 
L 68 -4 
M 0 72 
L 72 0 
M 4 76 
L 76 4 
M 8 80 
L 80 8 
M 12 84 
L 84 12 
M 16 88 
L 88 16 
M 20 92 
L 92 20 
M 24 96 
L 96 24 
M 28 100 
L 100 28 
M 32 104 
L 104 32 
M 36 108 
L 108 36 
" style="fill: #000000; stroke: #000000; stroke-width: 1.0; stroke-linecap: butt; stroke-linejoin: miter"/>
  </pattern>
 </defs>
</svg>
