<?xml version="1.0" encoding="utf-8" standalone="no"?>
<!DOCTYPE svg PUBLIC "-//W3C//DTD SVG 1.1//EN"
  "http://www.w3.org/Graphics/SVG/1.1/DTD/svg11.dtd">
<svg xmlns:xlink="http://www.w3.org/1999/xlink" width="460.386875pt" height="324.186875pt" viewBox="0 0 460.386875 324.186875" xmlns="http://www.w3.org/2000/svg" version="1.1">
 <metadata>
  <rdf:RDF xmlns:dc="http://purl.org/dc/elements/1.1/" xmlns:cc="http://creativecommons.org/ns#" xmlns:rdf="http://www.w3.org/1999/02/22-rdf-syntax-ns#">
   <cc:Work>
    <dc:type rdf:resource="http://purl.org/dc/dcmitype/StillImage"/>
    <dc:date>2026-05-20T00:31:55.011611</dc:date>
    <dc:format>image/svg+xml</dc:format>
    <dc:creator>
     <cc:Agent>
      <dc:title>Matplotlib v3.10.9, https://matplotlib.org/</dc:title>
     </cc:Agent>
    </dc:creator>
   </cc:Work>
  </rdf:RDF>
 </metadata>
 <defs>
  <style type="text/css">*{stroke-linejoin: round; stroke-linecap: butt}</style>
 </defs>
 <g id="figure_1">
  <g id="patch_1">
   <path d="M 0 324.186875 
L 460.386875 324.186875 
L 460.386875 0 
L 0 0 
z
" style="fill: #ffffff"/>
  </g>
  <g id="axes_1">
   <g id="patch_2">
    <path d="M 45.056875 293.286125 
L 453.186875 293.286125 
L 453.186875 22.318125 
L 45.056875 22.318125 
z
" style="fill: #ffffff"/>
   </g>
   <g id="matplotlib.axis_1">
    <g id="xtick_1">
     <g id="line2d_1">
      <defs>
       <path id="m3451555286" d="M 0 0 
L 0 3.5 
" style="stroke: #000000; stroke-width: 0.8"/>
      </defs>
      <g>
       <use xlink:href="#m3451555286" x="146.058744" y="293.286125" style="stroke: #000000; stroke-width: 0.8"/>
      </g>
     </g>
     <g id="text_1">
      <text style="font-size: 8px; font-family: 'DejaVu Sans'" transform="translate(116.668119 306.364875)">Calentamiento</text>
      <text style="font-size: 8px; font-family: 'DejaVu Sans'" transform="translate(133.858744 315.323125)">global</text>
     </g>
    </g>
    <g id="xtick_2">
     <g id="line2d_2">
      <g>
       <use xlink:href="#m3451555286" x="352.185006" y="293.286125" style="stroke: #000000; stroke-width: 0.8"/>
      </g>
     </g>
     <g id="text_2">
      <text style="font-size: 8px; font-family: 'DejaVu Sans'; text-anchor: middle" x="352.185006" y="306.364875" transform="rotate(-0 352.185006 306.364875)">Eutrofizacion</text>
     </g>
    </g>
   </g>
   <g id="matplotlib.axis_2">
    <g id="ytick_1">
     <g id="line2d_3">
      <path d="M 45.056875 293.286125 
L 453.186875 293.286125 
" clip-path="url(#p78b911f76d)" style="fill: none; stroke: #d9d9d9; stroke-width: 0.7; stroke-linecap: square"/>
     </g>
     <g id="line2d_4">
      <defs>
       <path id="m374ed7339b" d="M 0 0 
L -3.5 0 
" style="stroke: #000000; stroke-width: 0.8"/>
      </defs>
      <g>
       <use xlink:href="#m374ed7339b" x="45.056875" y="293.286125" style="stroke: #000000; stroke-width: 0.8"/>
      </g>
     </g>
     <g id="text_3">
      <text style="font-size: 9px; font-family: 'DejaVu Sans'; text-anchor: end" x="38.056875" y="296.705422" transform="rotate(-0 38.056875 296.705422)">0</text>
     </g>
    </g>
    <g id="ytick_2">
     <g id="line2d_5">
      <path d="M 45.056875 246.070191 
L 453.186875 246.070191 
" clip-path="url(#p78b911f76d)" style="fill: none; stroke: #d9d9d9; stroke-width: 0.7; stroke-linecap: square"/>
     </g>
     <g id="line2d_6">
      <g>
       <use xlink:href="#m374ed7339b" x="45.056875" y="246.070191" style="stroke: #000000; stroke-width: 0.8"/>
      </g>
     </g>
     <g id="text_4">
      <text style="font-size: 9px; font-family: 'DejaVu Sans'; text-anchor: end" x="38.056875" y="249.489488" transform="rotate(-0 38.056875 249.489488)">50</text>
     </g>
    </g>
    <g id="ytick_3">
     <g id="line2d_7">
      <path d="M 45.056875 198.854257 
L 453.186875 198.854257 
" clip-path="url(#p78b911f76d)" style="fill: none; stroke: #d9d9d9; stroke-width: 0.7; stroke-linecap: square"/>
     </g>
     <g id="line2d_8">
      <g>
       <use xlink:href="#m374ed7339b" x="45.056875" y="198.854257" style="stroke: #000000; stroke-width: 0.8"/>
      </g>
     </g>
     <g id="text_5">
      <text style="font-size: 9px; font-family: 'DejaVu Sans'; text-anchor: end" x="38.056875" y="202.273554" transform="rotate(-0 38.056875 202.273554)">100</text>
     </g>
    </g>
    <g id="ytick_4">
     <g id="line2d_9">
      <path d="M 45.056875 151.638323 
L 453.186875 151.638323 
" clip-path="url(#p78b911f76d)" style="fill: none; stroke: #d9d9d9; stroke-width: 0.7; stroke-linecap: square"/>
     </g>
     <g id="line2d_10">
      <g>
       <use xlink:href="#m374ed7339b" x="45.056875" y="151.638323" style="stroke: #000000; stroke-width: 0.8"/>
      </g>
     </g>
     <g id="text_6">
      <text style="font-size: 9px; font-family: 'DejaVu Sans'; text-anchor: end" x="38.056875" y="155.05762" transform="rotate(-0 38.056875 155.05762)">150</text>
     </g>
    </g>
    <g id="ytick_5">
     <g id="line2d_11">
      <path d="M 45.056875 104.42239 
L 453.186875 104.42239 
" clip-path="url(#p78b911f76d)" style="fill: none; stroke: #d9d9d9; stroke-width: 0.7; stroke-linecap: square"/>
     </g>
     <g id="line2d_12">
      <g>
       <use xlink:href="#m374ed7339b" x="45.056875" y="104.42239" style="stroke: #000000; stroke-width: 0.8"/>
      </g>
     </g>
     <g id="text_7">
      <text style="font-size: 9px; font-family: 'DejaVu Sans'; text-anchor: end" x="38.056875" y="107.841686" transform="rotate(-0 38.056875 107.841686)">200</text>
     </g>
    </g>
    <g id="ytick_6">
     <g id="line2d_13">
      <path d="M 45.056875 57.206456 
L 453.186875 57.206456 
" clip-path="url(#p78b911f76d)" style="fill: none; stroke: #d9d9d9; stroke-width: 0.7; stroke-linecap: square"/>
     </g>
     <g id="line2d_14">
      <g>
       <use xlink:href="#m374ed7339b" x="45.056875" y="57.206456" style="stroke: #000000; stroke-width: 0.8"/>
      </g>
     </g>
     <g id="text_8">
      <text style="font-size: 9px; font-family: 'DejaVu Sans'; text-anchor: end" x="38.056875" y="60.625753" transform="rotate(-0 38.056875 60.625753)">250</text>
     </g>
    </g>
    <g id="text_9">
     <text style="font-size: 10px; font-family: 'DejaVu Sans'; text-anchor: middle" x="14.798438" y="157.802125" transform="rotate(-90 14.798438 157.802125)">Diferencia B respecto a A (%)</text>
    </g>
   </g>
   <g id="patch_3">
    <path d="M 63.608239 293.286125 
L 228.509249 293.286125 
L 228.509249 35.221363 
L 63.608239 35.221363 
z
" clip-path="url(#p78b911f76d)" style="fill: #404040; stroke: #000000; stroke-width: 0.6; stroke-linejoin: miter"/>
   </g>
   <g id="patch_4">
    <path d="M 269.734501 293.286125 
L 434.635511 293.286125 
L 434.635511 272.903849 
L 269.734501 272.903849 
z
" clip-path="url(#p78b911f76d)" style="fill: url(#hfd9d263122); stroke: #000000; stroke-width: 0.6; stroke-linejoin: miter"/>
   </g>
   <g id="patch_5">
    <path d="M 45.056875 293.286125 
L 45.056875 22.318125 
" style="fill: none; stroke: #000000; stroke-width: 0.8; stroke-linejoin: miter; stroke-linecap: square"/>
   </g>
   <g id="patch_6">
    <path d="M 453.186875 293.286125 
L 453.186875 22.318125 
" style="fill: none; stroke: #000000; stroke-width: 0.8; stroke-linejoin: miter; stroke-linecap: square"/>
   </g>
   <g id="patch_7">
    <path d="M 45.056875 293.286125 
L 453.186875 293.286125 
" style="fill: none; stroke: #000000; stroke-width: 0.8; stroke-linejoin: miter; stroke-linecap: square"/>
   </g>
   <g id="patch_8">
    <path d="M 45.056875 22.318125 
L 453.186875 22.318125 
" style="fill: none; stroke: #000000; stroke-width: 0.8; stroke-linejoin: miter; stroke-linecap: square"/>
   </g>
   <g id="text_10">
    <text style="font-size: 12px; font-family: 'DejaVu Sans'; text-anchor: middle" x="249.121875" y="16.318125" transform="rotate(-0 249.121875 16.318125)">Diferencia porcentual del escenario B respecto al A</text>
   </g>
  </g>
 </g>
 <defs>
  <clipPath id="p78b911f76d">
   <rect x="45.056875" y="22.318125" width="408.13" height="270.968"/>
  </clipPath>
 </defs>
 <defs>
  <pattern id="hfd9d263122" patternUnits="userSpaceOnUse" x="0" y="0" width="72" height="72">
   <rect x="0" y="0" width="73" height="73" fill="#bdbdbd"/>
   <path d="M -36 36 
L 36 -36 
M -32 40 
L 40 -32 
M -28 44 
L 44 -28 
M -24 48 
L 48 -24 
M -20 52 
L 52 -20 
M -16 56 
L 56 -16 
M -12 60 
L 60 -12 
M -8 64 
L 64 -8 
M -4 68 
L 68 -4 
M 0 72 
L 72 0 
M 4 76 
L 76 4 
M 8 80 
L 80 8 
M 12 84 
L 84 12 
M 16 88 
L 88 16 
M 20 92 
L 92 20 
M 24 96 
L 96 24 
M 28 100 
L 100 28 
M 32 104 
L 104 32 
M 36 108 
L 108 36 
" style="fill: #000000; stroke: #000000; stroke-width: 1.0; stroke-linecap: butt; stroke-linejoin: miter"/>
  </pattern>
 </defs>
</svg>
